<svg width="600" height="733" fill="none" xmlns="http://www.w3.org/2000/svg"><rect width="600" height="600" rx="150" fill="#13B8FF" filter="url(#filter0_ii)"/><path d="M477.19 364.34a137.1 137.1 0 0 0-12.74 77.6 266.86 266.86 0 0 0 11.17 50.83 166.14 166.14 0 0 0 10.99 25.03c4.15 7.76 13.85 16.36 16.52 24.2h-233.4s-13.95-51.32-45.53-64.25c-5.9 1.83-12.1 3.75-18.37 5.67a677.5 677.5 0 0 1-62.14 16.27 26.83 26.83 0 0 1-17.45-2.25 26.77 26.77 0 0 1-12.19-14.35 36.9 36.9 0 0 1-2.67-18.61 47.08 47.08 0 0 0 2.21-19.86c-2.4-8.43-11.35-10.51-18.37-15.02-5.63-3.67 4.52-15.44 4.52-15.44s-10.8-7.26-14.77-10.43c-3.97-3 1.66-8.18 6.74-17.94a20.22 20.22 0 0 0 1.75-13.52c-1.84-8.93-16.9-12.35-24.28-17.27-3.42-2.34-9.05-5.84-9.79-10.1-.92-5.92 6.84-14.27 10.62-18.44a324.11 324.11 0 0 0 41.09-60.5c1.52-2.25 2.4-4.8 2.58-7.43-.09-11.93-19.3-16.85-21.05-28.45-.27-3.4.4-6.82 1.94-9.93a240.52 240.52 0 0 0 13.67-31.55c2.26-9.9 5.22-19.65 8.86-29.2a148.29 148.29 0 0 1 35.09-51.74c22.62-21.61 56.04-32.3 87.62-37.97a671.38 671.38 0 0 1 84.85-11.26c1.01-.09 2.03-.09 3.05-.17 59.18-2.67 105.9 15.44 151.6 47.81 24.98 16.8 43.23 40.5 51.98 67.51a217.93 217.93 0 0 1 9.33 68.43c-.19 22.8-7.52 45.07-21.14 64.25-13.76 19.61-31.86 36.64-42.3 58.08z" fill="#BE8C80"/><path d="M449.2 364.55a136.73 136.73 0 0 0-12.75 77.52 266.21 266.21 0 0 0 11.18 50.75 165.85 165.85 0 0 0 11 25c4.15 7.76 13.85 16.34 16.53 24.18h-205.3s-13.95-51.26-45.55-64.18c-5.9 1.84-12.1 3.75-18.38 5.67-3.05-2.25-22.36 9.92-25.87 8.5a113.61 113.61 0 0 1-53.78 5.5 26.75 26.75 0 0 1-12.19-14.33 36.8 36.8 0 0 1-2.68-18.59 46.92 46.92 0 0 0 2.22-19.83c-2.4-8.42-11.36-10.5-18.39-15-5.63-3.68 4.53-15.43 4.53-15.43s-10.81-7.25-14.78-10.42c-3.98-3 1.66-8.16 6.74-17.92a20.16 20.16 0 0 0 1.76-13.5c-1.85-8.92-16.91-12.33-24.3-17.25-3.42-2.34-9.06-5.84-9.8-10.09-.92-5.91 6.84-14.25 10.63-18.42a323.72 323.72 0 0 0 41.11-60.42c1.52-2.25 2.41-4.8 2.59-7.42-.1-11.92-19.31-16.84-21.07-28.42-.27-3.4.4-6.81 1.94-9.92a240.1 240.1 0 0 0 13.68-31.5 218.28 218.28 0 0 1 8.87-29.18 148.11 148.11 0 0 1 35.1-51.67c22.64-21.6 56.1-32.26 87.69-37.93A672.99 672.99 0 0 1 324.83 59c47.68 2.75 87.5 20 126.5 47.6 24.99 16.77 43.25 40.44 52 67.42a217.32 217.32 0 0 1 9.34 68.34c-.19 22.77-7.52 45.02-21.16 64.18-13.76 19.6-31.87 36.6-42.31 58.01z" fill="#D2A594"/><path d="M441.02 120.44a117.79 117.79 0 0 1 30.41 27.43l-18.63 16.8a82.8 82.8 0 0 1 13.08 28.43h26.33a100.32 100.32 0 0 1 0 38.8h-26.33a82.8 82.8 0 0 1-13.07 28.43l18.62 16.8a117.8 117.8 0 0 1-30.41 27.43l-18.63-16.8a102.79 102.79 0 0 1-31.52 11.8v23.73a136.34 136.34 0 0 1-43.02 0v-23.74a102.8 102.8 0 0 1-31.53-11.8l-18.62 16.8a117.8 117.8 0 0 1-30.42-27.42l18.63-16.8a82.8 82.8 0 0 1-13.08-28.43h-26.32a100.36 100.36 0 0 1 0-38.8h26.32a82.8 82.8 0 0 1 13.08-28.43l-18.63-16.8a117.79 117.79 0 0 1 30.42-27.43l18.62 16.8a102.8 102.8 0 0 1 31.53-11.8v-23.73a136.35 136.35 0 0 1 43.01 0v23.74a102.8 102.8 0 0 1 31.53 11.8l18.63-16.8zM198.55 325c15.15 0 27.43-11.2 27.43-25s-12.28-25-27.43-25-27.43 11.2-27.43 25 12.28 25 27.43 25zM179.92 220c12.29 0 22.25-8.95 22.25-20s-9.96-20-22.25-20c-12.3 0-22.26 8.95-22.26 20s9.97 20 22.26 20z" fill="#02A9F4"/><path d="M368.84 258c28.02 0 50.73-20.37 50.73-45.5S396.86 167 368.83 167c-28.01 0-50.72 20.37-50.72 45.5s22.7 45.5 50.72 45.5z" fill="#000"/><path d="M452.58 164.45a83.71 83.71 0 0 1 13.08 28.3l-1.3.25h-26.44a83.41 83.41 0 0 0-13.18-28.55l18.75-16.9a114.86 114.86 0 0 0-15.32-16.17L440.8 120a120.19 120.19 0 0 1 30.53 27.54l-18.74 16.91zM494.1 212.62c0 6.5-.64 12.98-1.88 19.38h-28.14a101 101 0 0 0 0-38.75l1.31-.25c.07.07.1.16.1.25h26.73c1.24 6.4 1.87 12.88 1.88 19.37zM471.32 277.46A120.19 120.19 0 0 1 440.8 305l-12.62-11.38a114.86 114.86 0 0 0 15.32-16.16l-18.75-16.91A83.4 83.4 0 0 0 437.92 232h27.84a83.41 83.41 0 0 1-13.18 28.55l18.75 16.9z" fill="#0377BC"/><path d="M62.36 321.56c-6.63 7.3-13.58 15.83-12.18 24.5 2.02 6.57 6.83 12.16 13.39 15.54a70.35 70.35 0 0 0 9.63 5.05c3.99 1.83 10.66 4.9 11.12 7.1.61 2.8.26 5.72-1 8.35-1.38 2.6-2.8 4.86-4.03 6.82-3.4 5.41-9.07 14.47-.5 20.95 1.99 1.6 5.4 4 8.52 6.16a19.35 19.35 0 0 0-2.98 12.07c.5 3.26 2.47 6.19 5.44 8.1a80.33 80.33 0 0 0 6.47 3.6c5.43 2.8 7.55 4.1 8.28 6.7.48 3.4.14 6.84-1 10.1a73.8 73.8 0 0 0-1.38 6.55 44.26 44.26 0 0 0 3.1 22.4c4.78 15.82 22.46 25.5 40.23 22.02a816.71 816.71 0 0 0 77.92-21.02c20.77 11.06 33.88 44.55 37.3 57.1 1.02 3.73 4.72 6.35 8.97 6.35H503.2a9.6 9.6 0 0 0 7.42-3.38 7.67 7.67 0 0 0 1.41-7.39 56.59 56.59 0 0 0-10.4-16.2 64.3 64.3 0 0 1-6.66-9.16 155.21 155.21 0 0 1-10.43-23.84 252.58 252.58 0 0 1-10.89-49.28c-3.26-24.92.9-50.17 12.08-73.15a185.77 185.77 0 0 1 25.07-35.7c5.59-6.78 11.35-13.79 16.55-21.17 14.58-20.44 22.42-44.2 22.6-68.5.55-23.88-2.7-47.7-9.66-70.76-9.34-28.64-28.71-53.77-55.22-71.65-52.1-36.87-100.82-52.16-157.81-49.53A682.08 682.08 0 0 0 237.9 61.8c-41.68 7.57-71.94 20.79-92.54 40.4-16.34 15.7-28.95 34.25-37.05 54.5a203.45 203.45 0 0 0-8.36 27.13l-.77 3.01a99.26 99.26 0 0 1-7.83 18.8 196.11 196.11 0 0 0-5.48 11.68 25.93 25.93 0 0 0-2.49 14.03c1.88 7.44 6.66 14.03 13.48 18.56 4.53 3.74 7.5 6.37 7.53 8.77a13.5 13.5 0 0 1-1.61 3.55 318.7 318.7 0 0 1-40.43 59.33zm46.99-83.94c-3.74-3.09-7.27-6-7.66-8.55.03-2.03.54-4.02 1.48-5.86 1.51-3.64 3.29-7.2 5.05-10.75 3.77-7 6.77-14.31 8.96-21.84l.78-3.04c1.97-8.5 4.53-16.9 7.69-25.1a140 140 0 0 1 33.13-48.8c17.89-17.05 44.97-28.67 82.77-35.54a664.4 664.4 0 0 1 86.65-11.2c52.28-2.38 97.12 11.78 145.48 46 23.5 15.64 40.65 37.8 48.83 63.1a211.2 211.2 0 0 1 8.96 65.96c-.15 21.23-7 41.97-19.74 59.81-4.83 6.86-10.38 13.62-15.76 20.15a201.44 201.44 0 0 0-27.18 38.97 143.73 143.73 0 0 0-13.48 81.83 267.34 267.34 0 0 0 11.57 52.2c3.06 8.98 6.9 17.73 11.45 26.17a77.6 77.6 0 0 0 8.75 12.2H276.66c-6.16-19.77-17.3-38-32.57-53.24l6.84-2.16c6.92-2.18 12.13-3.83 14.76-4.58 39.6-11.21 59.4-27.45 58.86-48.26-.12-4.6-4.35-8.24-9.45-8.13-5.1.1-9.14 3.92-9.02 8.52.23 8.59-7.56 21.1-45.94 31.97a763.1 763.1 0 0 0-15.31 4.76c-6.63 2.09-14.78 4.66-23.7 7.41l-.05.02c-26 8.49-52.5 15.7-79.35 21.62-8.65 1.5-17.08-3.43-19.05-11.18-2-4.68-2.77-9.72-2.23-14.71.25-1.73.69-3.45 1.1-5.18 1.9-5.78 2.2-11.9.87-17.8-2.65-7.65-8.87-13.88-17.02-17.06-.66-.34-1.33-.68-1.98-1.03a30.28 30.28 0 0 1 3.54-5.16 7.74 7.74 0 0 0 1.88-6.26 8.21 8.21 0 0 0-3.66-5.58c-2.22-1.48-7.5-5.04-11.3-7.78.48-.77 1-1.63 1.5-2.4 1.41-2.26 3.04-4.86 4.61-7.86a28.08 28.08 0 0 0 2.49-18.64c-2.16-10.21-12.98-15.19-20.89-18.83a55.3 55.3 0 0 1-7.67-4 46.68 46.68 0 0 1-5.44-3.98c.03-1.26 1.47-4.3 8.58-12.13a332.27 332.27 0 0 0 42.2-61.9 22.35 22.35 0 0 0 3.62-11.3c-.94-8.4-5.88-16.01-13.53-20.86z" fill="#000"/><path d="M246.44 240.15h19.17a90.04 90.04 0 0 0 8.64 18.73l-13.56 12.2a7.7 7.7 0 0 0-1.05 10.62 125.84 125.84 0 0 0 32.72 29.42c3.68 2.3 8.66 1.9 11.83-.94l13.56-12.2a112.67 112.67 0 0 0 20.85 7.77V323c0 4.02 3.2 7.47 7.62 8.18a147.22 147.22 0 0 0 46.28 0c4.4-.71 7.62-4.16 7.62-8.18v-17.24a112.64 112.64 0 0 0 20.85-7.76l13.56 12.19a10.05 10.05 0 0 0 11.83.94 125.82 125.82 0 0 0 32.71-29.42 7.7 7.7 0 0 0-1.04-10.63l-13.56-12.19a90.05 90.05 0 0 0 8.64-18.73h19.16c4.48 0 8.32-2.89 9.1-6.85a107.11 107.11 0 0 0 0-41.61c-.78-3.96-4.62-6.85-9.1-6.85h-19.16a90.06 90.06 0 0 0-8.64-18.73l13.56-12.2a7.7 7.7 0 0 0 1.05-10.62 125.82 125.82 0 0 0-32.72-29.41 10.01 10.01 0 0 0-11.83.93l-13.56 12.2a112.64 112.64 0 0 0-20.85-7.78V102c0-4.02-3.21-7.47-7.62-8.18a148 148 0 0 0-46.28 0c-4.41.71-7.62 4.16-7.62 8.18v17.23a112.67 112.67 0 0 0-20.85 7.77l-13.56-12.19a10.01 10.01 0 0 0-11.83-.94 125.84 125.84 0 0 0-32.72 29.42 7.7 7.7 0 0 0 1.05 10.63l13.56 12.19a90.06 90.06 0 0 0-8.64 18.73h-19.17c-4.48 0-8.31 2.89-9.1 6.85a107.07 107.07 0 0 0 0 41.61c.79 3.96 4.62 6.85 9.1 6.85zm8-38.69h18.34c4.34 0 8.1-2.71 9.03-6.52a74.43 74.43 0 0 1 11.82-25.66 7.68 7.68 0 0 0-1.23-10.36l-12.98-11.67a108.52 108.52 0 0 1 17.36-15.6l12.97 11.66a10.01 10.01 0 0 0 11.53 1.12 92.96 92.96 0 0 1 28.55-10.64c4.24-.83 7.26-4.21 7.26-8.11V109.2c8.15-.78 16.38-.78 24.54 0v16.48c0 3.9 3.02 7.28 7.26 8.11 10.14 2 19.8 5.6 28.55 10.65a10.04 10.04 0 0 0 11.53-1.13l12.97-11.65c6.4 4.62 12.21 9.85 17.35 15.6l-12.97 11.66a7.68 7.68 0 0 0-1.24 10.37 74.42 74.42 0 0 1 11.83 25.65c.93 3.8 4.69 6.52 9.03 6.52h18.33c.88 7.34.88 14.73 0 22.07h-18.33c-4.34 0-8.1 2.71-9.03 6.52a74.43 74.43 0 0 1-11.83 25.66 7.68 7.68 0 0 0 1.24 10.36l12.97 11.67a108.43 108.43 0 0 1-17.35 15.6l-12.98-11.66a10.04 10.04 0 0 0-11.52-1.12 92.96 92.96 0 0 1-28.55 10.64c-4.24.83-7.26 4.21-7.26 8.11v16.48c-8.16.78-16.39.78-24.54 0V299.3c0-3.9-3.02-7.28-7.26-8.11a92.96 92.96 0 0 1-28.55-10.64 10 10 0 0 0-11.53 1.12l-12.98 11.65a108.39 108.39 0 0 1-17.35-15.6l12.98-11.66a7.68 7.68 0 0 0 1.23-10.36 74.42 74.42 0 0 1-11.82-25.66c-.94-3.8-4.7-6.52-9.03-6.52h-18.33a92.56 92.56 0 0 1 0-22.07zM217.19 271.39a38.77 38.77 0 0 0-9.41-3.54v-9.52c0-4.6-4.13-8.33-9.23-8.33-5.1 0-9.23 3.73-9.23 8.33v9.52c-3.3.78-6.47 1.97-9.4 3.54l-7.47-6.75a9.92 9.92 0 0 0-8.92-2.15 8.83 8.83 0 0 0-6.53 5.89 7.8 7.8 0 0 0 2.4 8.05l7.46 6.74a31.24 31.24 0 0 0-3.92 8.5H152.4c-5.1 0-9.23 3.73-9.23 8.33s4.13 8.33 9.23 8.33h10.54a31.24 31.24 0 0 0 3.92 8.5l-7.47 6.74a7.8 7.8 0 0 0-2.38 8.05 8.83 8.83 0 0 0 6.52 5.9 9.92 9.92 0 0 0 8.92-2.16l7.46-6.75a38.76 38.76 0 0 0 9.41 3.54v9.52c0 4.6 4.13 8.33 9.23 8.33 5.1 0 9.23-3.73 9.23-8.33v-9.52c3.3-.78 6.47-1.97 9.4-3.54l7.47 6.75a9.95 9.95 0 0 0 13.06 0 7.77 7.77 0 0 0 0-11.79l-7.47-6.74a31.21 31.21 0 0 0 3.92-8.5h10.54c5.1 0 9.23-3.73 9.23-8.33s-4.13-8.33-9.23-8.33h-10.54a31.21 31.21 0 0 0-3.92-8.5l7.47-6.74a7.77 7.77 0 0 0 0-11.79 9.95 9.95 0 0 0-13.06 0l-7.46 6.75zm-18.64 45.28c-10.2 0-18.46-7.47-18.46-16.67 0-9.2 8.26-16.67 18.46-16.67 10.2 0 18.46 7.47 18.46 16.67-.01 9.2-8.27 16.66-18.46 16.67zM143.06 208.4h7.06c.56 1.68 1.3 3.32 2.2 4.88l-4.97 4.54a7.9 7.9 0 0 0-2.39 8.11 8.85 8.85 0 0 0 6.52 5.94 9.84 9.84 0 0 0 8.9-2.17l5-4.56c1.7.82 3.48 1.5 5.32 2.02v6.44c0 4.64 4.13 8.4 9.22 8.4 5.09 0 9.21-3.76 9.21-8.4v-6.44c1.84-.52 3.63-1.2 5.33-2.02l5 4.56a9.86 9.86 0 0 0 13.03 0 7.89 7.89 0 0 0 0-11.88l-4.99-4.54a26.6 26.6 0 0 0 2.22-4.88h7.05c5.09 0 9.21-3.76 9.21-8.4 0-4.64-4.12-8.4-9.21-8.4h-7.05a26.6 26.6 0 0 0-2.22-4.88l4.99-4.54a7.9 7.9 0 0 0 2.38-8.12 8.85 8.85 0 0 0-6.51-5.93 9.84 9.84 0 0 0-8.9 2.17l-5 4.56c-1.7-.82-3.49-1.5-5.33-2.01v-6.45c0-4.64-4.13-8.4-9.21-8.4-5.1 0-9.22 3.76-9.22 8.4v6.45c-1.84.52-3.62 1.19-5.33 2.01l-5-4.56a9.86 9.86 0 0 0-13.02 0 7.89 7.89 0 0 0 0 11.88l4.98 4.54a26.6 26.6 0 0 0-2.22 4.88h-7.05c-5.09 0-9.2 3.76-9.2 8.4 0 4.64 4.11 8.4 9.2 8.4zm23.96-8.4c0-5.33 3.92-9.99 9.56-11.37 5.64-1.38 11.6.87 14.51 5.48a11 11 0 0 1-2.05 14.2 13.82 13.82 0 0 1-14.06 2.56c-4.82-1.82-7.96-6.11-7.96-10.87z" fill="#000"/><path d="M368.84 267c33.16 0 60.04-24.4 60.04-54.5S402 158 368.84 158s-60.04 24.4-60.04 54.5c.04 30.09 26.9 54.46 60.04 54.5zm0-92.23c22.96 0 41.57 16.9 41.57 37.73 0 20.84-18.61 37.73-41.57 37.73s-41.57-16.9-41.57-37.73c.03-20.83 18.62-37.7 41.57-37.73zM140.6 701.19h-28.58L105.59 719h-9.28l26.06-68.25h7.88l26.1 68.25h-9.22l-6.52-17.81zm-25.87-7.4h23.2l-11.62-31.93-11.58 31.92zm92.4.41c0 7.75-1.79 13.99-5.35 18.7-3.56 4.7-8.34 7.04-14.34 7.04-6.4 0-11.36-2.27-14.86-6.8l-.42 5.86h-7.97v-72h8.67v26.86c3.5-4.34 8.33-6.52 14.48-6.52 6.16 0 10.99 2.33 14.49 6.99 3.53 4.65 5.3 11.03 5.3 19.12v.75zm-8.68-.98c0-5.9-1.14-10.47-3.42-13.69-2.28-3.22-5.56-4.83-9.84-4.83-5.72 0-9.83 2.66-12.33 7.97v21.94c2.66 5.31 6.8 7.97 12.42 7.97 4.16 0 7.4-1.61 9.7-4.83 2.32-3.22 3.47-8.06 3.47-14.53zm17.35-.05c0-4.97.97-9.44 2.9-13.4a22.07 22.07 0 0 1 8.16-9.2 22.33 22.33 0 0 1 11.95-3.23c6.9 0 12.49 2.4 16.74 7.18 4.28 4.78 6.42 11.14 6.42 19.07v.61c0 4.94-.95 9.38-2.86 13.32a21.36 21.36 0 0 1-8.11 9.14 22.33 22.33 0 0 1-12.1 3.28c-6.87 0-12.45-2.4-16.73-7.17-4.25-4.79-6.37-11.11-6.37-18.99v-.6zm8.72 1.03c0 5.63 1.3 10.14 3.89 13.55 2.62 3.4 6.12 5.1 10.5 5.1 4.4 0 7.9-1.7 10.5-5.15 2.59-3.47 3.89-8.3 3.89-14.53 0-5.56-1.33-10.06-3.99-13.5a12.5 12.5 0 0 0-10.5-5.2c-4.28 0-7.73 1.7-10.36 5.1-2.62 3.41-3.93 8.29-3.93 14.63zm79.64 19.78c-3.38 3.97-8.33 5.96-14.86 5.96-5.4 0-9.53-1.57-12.38-4.69-2.81-3.16-4.23-7.81-4.26-13.97v-33h8.67v32.77c0 7.68 3.12 11.53 9.37 11.53 6.63 0 11.03-2.47 13.22-7.4v-36.9h8.67V719h-8.25l-.18-5.02zM337.58 656v12.28h9.47v6.7h-9.47v31.46c0 2.03.42 3.56 1.26 4.6.85 1 2.29 1.5 4.32 1.5 1 0 2.37-.2 4.12-.57V719c-2.28.63-4.5.94-6.65.94-3.88 0-6.8-1.17-8.77-3.52-1.97-2.34-2.95-5.67-2.95-9.98v-31.46h-9.24v-6.7h9.24V656h8.67zm51.6 12.28l.24 5.63c3.72-4.38 8.74-6.57 15.05-6.57 7.1 0 11.92 2.72 14.48 8.16a19.27 19.27 0 0 1 6.57-5.9 19.58 19.58 0 0 1 9.6-2.26c11.13 0 16.79 5.9 16.97 17.68V719h-8.67v-33.47c0-3.62-.83-6.33-2.48-8.1-1.66-1.82-4.44-2.73-8.35-2.73-3.21 0-5.89.97-8.01 2.9-2.13 1.92-3.36 4.5-3.7 7.74V719h-8.72v-33.23c0-7.38-3.61-11.07-10.83-11.07-5.69 0-9.58 2.42-11.67 7.27V719h-8.68v-50.72h8.2zm97.09 51.66c-6.88 0-12.47-2.25-16.79-6.75-4.3-4.53-6.46-10.58-6.46-18.14v-1.6c0-5.03.95-9.51 2.86-13.45a22.5 22.5 0 0 1 8.06-9.28 20.28 20.28 0 0 1 11.25-3.38c6.6 0 11.72 2.18 15.37 6.52 3.66 4.34 5.49 10.56 5.49 18.66v3.6h-34.36c.12 5 1.58 9.05 4.36 12.15a13.88 13.88 0 0 0 10.68 4.59c3.07 0 5.66-.63 7.79-1.88a19.56 19.56 0 0 0 5.57-4.96l5.3 4.12c-4.25 6.53-10.62 9.8-19.12 9.8zm-1.08-45.47c-3.5 0-6.44 1.28-8.81 3.84-2.38 2.53-3.85 6.1-4.41 10.69h25.4v-.66c-.25-4.4-1.43-7.8-3.56-10.22-2.12-2.43-5-3.65-8.62-3.65z" fill="#000"/><defs><filter id="filter0_ii" x="0" y="-44" width="600" height="667" filterUnits="userSpaceOnUse" color-interpolation-filters="sRGB"><feFlood flood-opacity="0" result="BackgroundImageFix"/><feBlend in="SourceGraphic" in2="BackgroundImageFix" result="shape"/><feColorMatrix in="SourceAlpha" values="0 0 0 0 0 0 0 0 0 0 0 0 0 0 0 0 0 0 127 0" result="hardAlpha"/><feOffset dy="23"/><feGaussianBlur stdDeviation="26.5"/><feComposite in2="hardAlpha" operator="arithmetic" k2="-1" k3="1"/><feColorMatrix values="0 0 0 0 1 0 0 0 0 1 0 0 0 0 1 0 0 0 0.58 0"/><feBlend in2="shape" result="effect1_innerShadow"/><feColorMatrix in="SourceAlpha" values="0 0 0 0 0 0 0 0 0 0 0 0 0 0 0 0 0 0 127 0" result="hardAlpha"/><feOffset dy="-44"/><feGaussianBlur stdDeviation="26.5"/><feComposite in2="hardAlpha" operator="arithmetic" k2="-1" k3="1"/><feColorMatrix values="0 0 0 0 0 0 0 0 0 0 0 0 0 0 0 0 0 0 0.25 0"/><feBlend in2="effect1_innerShadow" result="effect2_innerShadow"/></filter></defs></svg>