<svg width="600" height="727" fill="none" xmlns="http://www.w3.org/2000/svg"><g filter="url(#filter0_ii)"><rect width="600" height="598" rx="150" fill="#C4C4C4"/><path d="M481.03 548H118.97a17.2 17.2 0 0 1-17.25-17.17V67.17A17.2 17.2 0 0 1 118.97 50h362.06a17.2 17.2 0 0 1 17.25 17.17v463.66A17.2 17.2 0 0 1 481.03 548z" fill="#C7CFE2"/><path d="M498.27 221.72H101.73V67.17A17.2 17.2 0 0 1 118.97 50h362.06a17.2 17.2 0 0 1 17.25 17.17v154.55z" fill="#707487"/><path d="M179.31 307.59h-34.48a8.6 8.6 0 0 1-8.62-8.59v-34.35a8.6 8.6 0 0 1 8.62-8.58h34.48a8.6 8.6 0 0 1 8.62 8.58V299a8.6 8.6 0 0 1-8.62 8.59zM179.31 444.96h-34.48a8.6 8.6 0 0 1-8.62-8.58v-34.35a8.6 8.6 0 0 1 8.62-8.58h34.48a8.6 8.6 0 0 1 8.62 8.58v34.35a8.6 8.6 0 0 1-8.62 8.58zM179.31 376.28h-34.48a8.6 8.6 0 0 1-8.62-8.6v-34.34a8.6 8.6 0 0 1 8.62-8.58h34.48a8.6 8.6 0 0 1 8.62 8.58v34.35a8.6 8.6 0 0 1-8.62 8.59z" fill="#5B5D6E"/><path d="M179.31 513.66h-34.48a8.6 8.6 0 0 1-8.62-8.6v-34.34a8.6 8.6 0 0 1 8.62-8.58h34.48a8.6 8.6 0 0 1 8.62 8.58v34.35a8.6 8.6 0 0 1-8.62 8.59z" fill="#FF6464"/><path d="M248.28 307.59h-34.49a8.6 8.6 0 0 1-8.62-8.59v-34.35a8.6 8.6 0 0 1 8.62-8.58h34.49a8.6 8.6 0 0 1 8.62 8.58V299a8.6 8.6 0 0 1-8.62 8.59zM248.28 444.96h-34.49a8.6 8.6 0 0 1-8.62-8.58v-34.35a8.6 8.6 0 0 1 8.62-8.58h34.49a8.6 8.6 0 0 1 8.62 8.58v34.35a8.6 8.6 0 0 1-8.62 8.58zM248.28 376.28h-34.49a8.6 8.6 0 0 1-8.62-8.6v-34.34a8.6 8.6 0 0 1 8.62-8.58h34.49a8.6 8.6 0 0 1 8.62 8.58v34.35a8.6 8.6 0 0 1-8.62 8.59zM248.28 513.65h-34.49a8.6 8.6 0 0 1-8.62-8.58v-34.35a8.6 8.6 0 0 1 8.62-8.58h34.49a8.6 8.6 0 0 1 8.62 8.58v34.35a8.6 8.6 0 0 1-8.62 8.58zM317.24 307.59h-34.48a8.6 8.6 0 0 1-8.62-8.59v-34.35a8.6 8.6 0 0 1 8.62-8.58h34.48a8.6 8.6 0 0 1 8.62 8.58V299a8.6 8.6 0 0 1-8.62 8.59zM317.24 444.96h-34.48a8.6 8.6 0 0 1-8.62-8.58v-34.35a8.6 8.6 0 0 1 8.62-8.58h34.48a8.6 8.6 0 0 1 8.62 8.58v34.35a8.6 8.6 0 0 1-8.62 8.58zM317.24 376.28h-34.48a8.6 8.6 0 0 1-8.62-8.6v-34.34a8.6 8.6 0 0 1 8.62-8.58h34.48a8.6 8.6 0 0 1 8.62 8.58v34.35a8.6 8.6 0 0 1-8.62 8.59zM317.24 513.65h-34.48a8.6 8.6 0 0 1-8.62-8.58v-34.35a8.6 8.6 0 0 1 8.62-8.58h34.48a8.6 8.6 0 0 1 8.62 8.58v34.35a8.6 8.6 0 0 1-8.62 8.58zM386.2 307.59h-34.47a8.6 8.6 0 0 1-8.63-8.59v-34.35a8.6 8.6 0 0 1 8.63-8.58h34.48a8.6 8.6 0 0 1 8.62 8.58V299a8.6 8.6 0 0 1-8.62 8.59zM386.2 444.96h-34.47a8.6 8.6 0 0 1-8.63-8.58v-34.35a8.6 8.6 0 0 1 8.63-8.58h34.48a8.6 8.6 0 0 1 8.62 8.58v34.35a8.6 8.6 0 0 1-8.62 8.58zM386.2 376.28h-34.47a8.6 8.6 0 0 1-8.63-8.6v-34.34a8.6 8.6 0 0 1 8.63-8.58h34.48a8.6 8.6 0 0 1 8.62 8.58v34.35a8.6 8.6 0 0 1-8.62 8.59z" fill="#8F96AC"/><path d="M386.2 513.65h-34.47a8.6 8.6 0 0 1-8.63-8.58v-34.35a8.6 8.6 0 0 1 8.63-8.58h34.48a8.6 8.6 0 0 1 8.62 8.58v34.35a8.6 8.6 0 0 1-8.62 8.58zM455.17 307.59H420.7a8.6 8.6 0 0 1-8.62-8.59v-34.35a8.6 8.6 0 0 1 8.62-8.58h34.48a8.6 8.6 0 0 1 8.62 8.58V299a8.6 8.6 0 0 1-8.62 8.59zM455.17 376.28H420.7a8.6 8.6 0 0 1-8.62-8.6v-34.34a8.6 8.6 0 0 1 8.62-8.58h34.48a8.6 8.6 0 0 1 8.62 8.58v34.35a8.6 8.6 0 0 1-8.62 8.59zM455.17 513.65H420.7a8.6 8.6 0 0 1-8.62-8.58V402.03a8.6 8.6 0 0 1 8.62-8.58h34.48a8.6 8.6 0 0 1 8.62 8.58v103.04a8.6 8.6 0 0 1-8.62 8.58z" fill="#5B5D6E"/><path d="M455.17 170.2H144.83a8.6 8.6 0 0 1-8.62-8.58V92.93a8.6 8.6 0 0 1 8.62-8.59h310.34a8.6 8.6 0 0 1 8.62 8.6v68.68a8.6 8.6 0 0 1-8.62 8.59z" fill="#D7DEED"/><path d="M179.31 153.03h-17.24a8.6 8.6 0 0 1-8.62-8.58V110.1a8.6 8.6 0 0 1 8.62-8.58h17.24a8.6 8.6 0 0 1 8.62 8.58v34.35a8.6 8.6 0 0 1-8.62 8.58zM231.03 153.03H213.8a8.6 8.6 0 0 1-8.62-8.58V110.1a8.6 8.6 0 0 1 8.62-8.58h17.24a8.6 8.6 0 0 1 8.63 8.58v34.35a8.6 8.6 0 0 1-8.63 8.58zM282.76 153.03h-17.24a8.6 8.6 0 0 1-8.62-8.58V110.1a8.6 8.6 0 0 1 8.62-8.58h17.24a8.6 8.6 0 0 1 8.62 8.58v34.35a8.6 8.6 0 0 1-8.62 8.58zM334.48 153.03h-17.24a8.6 8.6 0 0 1-8.62-8.58V110.1a8.6 8.6 0 0 1 8.62-8.58h17.24a8.6 8.6 0 0 1 8.62 8.58v34.35a8.6 8.6 0 0 1-8.62 8.58z" fill="#C7CFE2"/><path d="M386.2 153.03h-17.23a8.6 8.6 0 0 1-8.63-8.58V110.1a8.6 8.6 0 0 1 8.63-8.58h17.24a8.6 8.6 0 0 1 8.62 8.58v34.35a8.6 8.6 0 0 1-8.62 8.58zM437.93 153.03H420.7a8.6 8.6 0 0 1-8.62-8.58V110.1a8.6 8.6 0 0 1 8.62-8.58h17.24a8.6 8.6 0 0 1 8.62 8.58v34.35a8.6 8.6 0 0 1-8.62 8.58z" fill="#8F96AC"/><path d="M498.28 195.97H101.72v25.75h396.56v-25.75z" fill="#5B5D6E"/><path d="M134.13 688.34c-.85 7.22-3.52 12.8-8.02 16.74-4.47 3.9-10.42 5.86-17.86 5.86-8.06 0-14.53-2.9-19.4-8.67-4.85-5.79-7.27-13.52-7.27-23.2v-6.57c0-6.34 1.12-11.92 3.37-16.73 2.28-4.82 5.5-8.5 9.66-11.07 4.16-2.6 8.97-3.89 14.44-3.89 7.25 0 13.06 2.03 17.43 6.1 4.38 4.03 6.93 9.62 7.64 16.78h-9.04c-.78-5.44-2.49-9.38-5.11-11.82-2.6-2.43-6.24-3.65-10.92-3.65-5.75 0-10.27 2.12-13.55 6.37-3.25 4.25-4.88 10.3-4.88 18.14v6.61c0 7.41 1.55 13.3 4.65 17.68 3.09 4.37 7.42 6.56 12.98 6.56 5 0 8.83-1.13 11.48-3.38 2.7-2.28 4.47-6.23 5.35-11.86h9.05zM176.4 710c-.5-1-.91-2.78-1.22-5.34-4.03 4.18-8.85 6.28-14.44 6.28-5 0-9.1-1.4-12.33-4.22a13.82 13.82 0 0 1-4.78-10.78c0-5.28 2-9.38 6-12.28 4.03-2.94 9.69-4.41 16.97-4.41h8.44v-3.98c0-3.04-.9-5.44-2.72-7.22-1.81-1.82-4.49-2.72-8.02-2.72-3.1 0-5.69.78-7.78 2.34-2.1 1.56-3.14 3.46-3.14 5.67h-8.72c0-2.53.9-4.97 2.67-7.3a18.52 18.52 0 0 1 7.32-5.63 24.77 24.77 0 0 1 10.17-2.07c5.84 0 10.42 1.47 13.73 4.41 3.31 2.9 5.03 6.92 5.16 12.05v23.34c0 4.66.6 8.36 1.78 11.11v.75h-9.1zm-14.4-6.6c2.72 0 5.3-.71 7.74-2.12 2.44-1.4 4.2-3.23 5.3-5.48v-10.4h-6.8c-10.63 0-15.94 3.1-15.94 9.32 0 2.72.9 4.84 2.72 6.37 1.81 1.53 4.14 2.3 6.99 2.3zm44.72 6.6h-8.67v-72h8.67v72zm34.27-6.14c3.1 0 5.8-.94 8.1-2.81a9.9 9.9 0 0 0 3.85-7.03h8.2a15.72 15.72 0 0 1-3 8.3 19.71 19.71 0 0 1-7.4 6.27 21.16 21.16 0 0 1-9.75 2.35c-6.9 0-12.4-2.3-16.5-6.9-4.06-4.62-6.1-10.93-6.1-18.93v-1.45c0-4.94.91-9.33 2.72-13.18a20.77 20.77 0 0 1 7.79-8.95c3.4-2.12 7.42-3.19 12.04-3.19 5.7 0 10.4 1.7 14.16 5.11 3.78 3.4 5.8 7.83 6.05 13.27h-8.2a11.82 11.82 0 0 0-3.76-8.06 11.46 11.46 0 0 0-8.25-3.2c-4.4 0-7.82 1.6-10.26 4.79-2.4 3.16-3.61 7.73-3.61 13.73v1.64c0 5.85 1.2 10.35 3.6 13.5 2.41 3.16 5.85 4.74 10.32 4.74zm61.22 1.12c-3.38 3.97-8.33 5.96-14.86 5.96-5.4 0-9.53-1.57-12.38-4.69-2.8-3.16-4.23-7.81-4.26-13.97v-33h8.67v32.77c0 7.68 3.13 11.53 9.38 11.53 6.62 0 11.03-2.47 13.21-7.4v-36.9h8.68V710h-8.25l-.2-5.02zM333.3 710h-8.68v-72h8.68v72zm45.23 0c-.5-1-.9-2.78-1.22-5.34-4.03 4.18-8.84 6.28-14.44 6.28-5 0-9.1-1.4-12.32-4.22a13.82 13.82 0 0 1-4.78-10.78c0-5.28 2-9.38 6-12.28 4.03-2.94 9.68-4.41 16.96-4.41h8.44v-3.98c0-3.04-.9-5.44-2.72-7.22-1.8-1.82-4.48-2.72-8.01-2.72-3.1 0-5.69.78-7.78 2.34-2.1 1.56-3.14 3.46-3.14 5.67h-8.72c0-2.53.89-4.97 2.67-7.3a18.52 18.52 0 0 1 7.31-5.63 24.77 24.77 0 0 1 10.17-2.07c5.85 0 10.43 1.47 13.74 4.41 3.31 2.9 5.03 6.92 5.15 12.05v23.34c0 4.66.6 8.36 1.79 11.11v.75h-9.1zm-14.39-6.6c2.72 0 5.3-.71 7.74-2.12 2.43-1.4 4.2-3.23 5.3-5.48v-10.4h-6.8c-10.63 0-15.94 3.1-15.94 9.32 0 2.72.9 4.84 2.72 6.37 1.8 1.53 4.14 2.3 6.98 2.3zM411.2 647v12.28h9.47v6.7h-9.47v31.46c0 2.03.43 3.56 1.27 4.6.84 1 2.28 1.5 4.31 1.5 1 0 2.38-.2 4.13-.57V710c-2.29.63-4.5.94-6.66.94-3.88 0-6.8-1.17-8.77-3.52-1.96-2.34-2.95-5.67-2.95-9.98v-31.46h-9.23v-6.7h9.23V647h8.67zm16.4 37.17c0-4.97.98-9.44 2.92-13.4a22.06 22.06 0 0 1 8.15-9.2 22.32 22.32 0 0 1 11.95-3.23c6.91 0 12.49 2.4 16.74 7.18 4.28 4.78 6.42 11.14 6.42 19.07v.61c0 4.94-.95 9.38-2.86 13.32a21.35 21.35 0 0 1-8.1 9.14 22.33 22.33 0 0 1-12.1 3.28c-6.88 0-12.45-2.4-16.74-7.17-4.25-4.79-6.37-11.11-6.37-18.99v-.6zm8.73 1.03c0 5.63 1.3 10.14 3.89 13.55 2.62 3.4 6.12 5.1 10.5 5.1 4.4 0 7.9-1.7 10.5-5.15 2.6-3.47 3.89-8.3 3.89-14.53 0-5.56-1.33-10.06-3.99-13.5a12.51 12.51 0 0 0-10.5-5.2c-4.28 0-7.73 1.7-10.35 5.1-2.63 3.41-3.94 8.29-3.94 14.63zm72.84-18.14a26.07 26.07 0 0 0-4.26-.33c-5.7 0-9.55 2.43-11.58 7.27v36h-8.67v-50.72h8.43l.14 5.86c2.85-4.53 6.88-6.8 12.1-6.8 1.69 0 2.97.22 3.84.66v8.06z" fill="#000"/></g><defs><filter id="filter0_ii" x="0" y="-43" width="600" height="776.94" filterUnits="userSpaceOnUse" color-interpolation-filters="sRGB"><feFlood flood-opacity="0" result="BackgroundImageFix"/><feBlend in="SourceGraphic" in2="BackgroundImageFix" result="shape"/><feColorMatrix in="SourceAlpha" values="0 0 0 0 0 0 0 0 0 0 0 0 0 0 0 0 0 0 127 0" result="hardAlpha"/><feOffset dy="23"/><feGaussianBlur stdDeviation="26.5"/><feComposite in2="hardAlpha" operator="arithmetic" k2="-1" k3="1"/><feColorMatrix values="0 0 0 0 1 0 0 0 0 1 0 0 0 0 1 0 0 0 0.57 0"/><feBlend in2="shape" result="effect1_innerShadow"/><feColorMatrix in="SourceAlpha" values="0 0 0 0 0 0 0 0 0 0 0 0 0 0 0 0 0 0 127 0" result="hardAlpha"/><feOffset dy="-43"/><feGaussianBlur stdDeviation="26.5"/><feComposite in2="hardAlpha" operator="arithmetic" k2="-1" k3="1"/><feColorMatrix values="0 0 0 0 0 0 0 0 0 0 0 0 0 0 0 0 0 0 0.24 0"/><feBlend in2="effect1_innerShadow" result="effect2_innerShadow"/></filter></defs></svg>