<svg width="600" height="707" fill="none" xmlns="http://www.w3.org/2000/svg"><path d="M450 0H150C67.16 0 0 67.16 0 150v300c0 82.84 67.16 150 150 150h300c82.84 0 150-67.16 150-150V150C600 67.16 532.84 0 450 0z" fill="#8EE809" filter="url(#filter0_ii)"/><path d="M536.88 435.73l-101.2-67.5a29.54 29.54 0 0 0-39.56 6.43l-29.47 37.9a12.6 12.6 0 0 1-16.16 3.4l-5.6-3.08c-18.6-10.14-41.73-22.75-88.33-69.37-46.6-46.63-59.24-69.77-69.37-88.33l-3.07-5.6a12.62 12.62 0 0 1 3.33-16.22l37.87-29.48a29.56 29.56 0 0 0 6.44-39.55l-67.5-101.21a29.38 29.38 0 0 0-39.6-8.92L82.34 79.63a59.7 59.7 0 0 0-27.22 35.33C39.88 170.49 51.34 266.32 192.5 407.5 304.8 519.8 388.39 550 445.85 550c13.23.05 26.4-1.66 39.16-5.12a59.64 59.64 0 0 0 35.33-27.22l25.45-42.3a29.4 29.4 0 0 0-8.91-39.63zm-5.45 31.08l-25.4 42.33a43.07 43.07 0 0 1-25.4 19.7c-51.26 14.07-140.81 2.4-276.34-133.12C68.77 260.19 57.12 170.64 71.19 119.37a43.13 43.13 0 0 1 19.73-25.45l42.32-25.4a12.75 12.75 0 0 1 17.19 3.87l36.66 55.05 30.77 46.15a12.83 12.83 0 0 1-2.78 17.17l-37.9 29.47a29.16 29.16 0 0 0-7.71 37.43l3 5.47c10.66 19.53 23.9 43.83 72.23 92.16 48.34 48.33 72.63 61.57 92.15 72.22l5.47 3a29.15 29.15 0 0 0 37.43-7.71l29.47-37.9a12.83 12.83 0 0 1 17.16-2.77l101.2 67.5a12.74 12.74 0 0 1 3.86 17.18h-.01zM333.32 133.37c78.2.08 141.56 63.45 141.64 141.65a8.33 8.33 0 1 0 16.67 0c-.1-87.4-70.92-158.22-158.31-158.32a8.35 8.35 0 0 0-7.7 11.52 8.34 8.34 0 0 0 7.7 5.15z" fill="#090909"/><path d="M333.32 183.36a91.77 91.77 0 0 1 91.65 91.66 8.33 8.33 0 0 0 16.66 0c-.06-59.8-48.52-108.26-108.31-108.32a8.33 8.33 0 0 0 0 16.66z" fill="#090909"/><path d="M333.32 233.36a41.7 41.7 0 0 1 41.66 41.66 8.33 8.33 0 0 0 16.66 0 58.4 58.4 0 0 0-58.32-58.33 8.34 8.34 0 0 0 0 16.67z" fill="#090909"/><path d="M109.55 683.53c-.85 7.22-3.52 12.8-8.02 16.74-4.47 3.9-10.42 5.86-17.86 5.86-8.06 0-14.53-2.9-19.4-8.67-4.85-5.79-7.27-13.52-7.27-23.2v-6.57c0-6.34 1.12-11.92 3.37-16.73 2.28-4.82 5.5-8.5 9.66-11.07 4.16-2.6 8.97-3.89 14.44-3.89 7.25 0 13.06 2.03 17.43 6.1 4.38 4.03 6.93 9.62 7.64 16.78h-9.04c-.78-5.44-2.49-9.38-5.11-11.82-2.6-2.43-6.24-3.65-10.92-3.65-5.75 0-10.27 2.12-13.55 6.37-3.25 4.25-4.88 10.3-4.88 18.14v6.61c0 7.41 1.55 13.3 4.65 17.68 3.09 4.37 7.42 6.56 12.98 6.56 5 0 8.83-1.13 11.48-3.38 2.7-2.28 4.47-6.23 5.35-11.86h9.05zm8.67-4.17c0-4.97.97-9.44 2.9-13.4a22.07 22.07 0 0 1 8.16-9.2c3.6-2.18 7.74-3.3 11.95-3.23 6.9 0 12.49 2.4 16.74 7.18 4.28 4.78 6.42 11.14 6.42 19.07v.61c0 4.94-.95 9.38-2.86 13.32a21.36 21.36 0 0 1-8.11 9.14 22.33 22.33 0 0 1-12.1 3.28c-6.87 0-12.45-2.4-16.73-7.17-4.25-4.79-6.37-11.11-6.37-18.99v-.61zm8.72 1.03c0 5.63 1.3 10.14 3.89 13.55 2.62 3.4 6.12 5.1 10.5 5.1 4.4 0 7.9-1.7 10.5-5.15 2.59-3.47 3.89-8.3 3.89-14.53 0-5.56-1.33-10.06-3.99-13.5a12.5 12.5 0 0 0-10.5-5.2c-4.28 0-7.73 1.7-10.36 5.1-2.62 3.41-3.93 8.29-3.93 14.63zm56.53-25.92l.28 6.38a18.48 18.48 0 0 1 15.19-7.32c10.71 0 16.12 6.05 16.21 18.14v33.52h-8.67v-33.56c-.03-3.66-.87-6.36-2.53-8.11-1.62-1.75-4.17-2.63-7.64-2.63-2.81 0-5.28.75-7.4 2.25a15.28 15.28 0 0 0-4.97 5.9v36.15h-8.68v-50.72h8.21zM240 642.19v12.28h9.47v6.7H240v31.46c0 2.03.42 3.56 1.26 4.6.85 1 2.28 1.5 4.32 1.5 1 0 2.37-.2 4.12-.57v7.03c-2.28.63-4.5.94-6.66.94-3.87 0-6.8-1.17-8.76-3.52-1.97-2.34-2.95-5.67-2.95-9.98v-31.46h-9.24v-6.7h9.24v-12.28H240zm50.95 63c-.5-1-.9-2.78-1.22-5.34-4.03 4.18-8.84 6.28-14.44 6.28-5 0-9.1-1.4-12.32-4.22a13.79 13.79 0 0 1-4.78-10.78c0-5.28 2-9.38 6-12.28 4.03-2.94 9.68-4.41 16.96-4.41h8.44v-3.98c0-3.04-.9-5.44-2.72-7.22-1.8-1.82-4.48-2.72-8.01-2.72-3.1 0-5.69.78-7.78 2.34-2.1 1.56-3.14 3.46-3.14 5.67h-8.72c0-2.53.89-4.97 2.67-7.3a18.52 18.52 0 0 1 7.31-5.63c3.2-1.4 6.67-2.1 10.17-2.07 5.85 0 10.43 1.47 13.74 4.41 3.31 2.9 5.03 6.92 5.15 12.05v23.34c0 4.66.6 8.36 1.79 11.11v.75h-9.1zm-14.39-6.6c2.72 0 5.3-.71 7.74-2.12a12.8 12.8 0 0 0 5.3-5.48v-10.4h-6.8c-10.63 0-15.94 3.1-15.94 9.32 0 2.72.9 4.84 2.72 6.37 1.8 1.53 4.14 2.3 6.98 2.3v.01zm55.64.46c3.1 0 5.8-.94 8.11-2.81a9.9 9.9 0 0 0 3.84-7.03h8.2c-.19 3-1.23 5.88-3 8.3a19.71 19.71 0 0 1-7.4 6.27 21.17 21.17 0 0 1-9.75 2.35c-6.9 0-12.4-2.3-16.5-6.9-4.06-4.62-6.1-10.93-6.1-18.93v-1.45c0-4.94.91-9.33 2.73-13.18a20.76 20.76 0 0 1 7.78-8.95c3.4-2.12 7.42-3.19 12.04-3.19 5.7 0 10.41 1.7 14.16 5.11 3.78 3.4 5.8 7.83 6.05 13.27h-8.2a11.82 11.82 0 0 0-3.76-8.06 11.43 11.43 0 0 0-8.25-3.2c-4.4 0-7.82 1.6-10.26 4.79-2.4 3.16-3.61 7.73-3.61 13.73v1.64c0 5.85 1.2 10.35 3.6 13.5 2.42 3.16 5.85 4.74 10.32 4.74zm41.67-56.86v12.28h9.47v6.7h-9.47v31.46c0 2.03.43 3.56 1.27 4.6.84 1 2.28 1.5 4.31 1.5 1 0 2.38-.2 4.13-.57v7.03a25 25 0 0 1-6.66.94c-3.88 0-6.8-1.17-8.77-3.52-1.96-2.34-2.95-5.67-2.95-9.98v-31.46h-9.23v-6.7h9.23v-12.28h8.67zm51.61 12.28l.24 5.63c3.72-4.38 8.73-6.57 15.04-6.57 7.1 0 11.93 2.72 14.49 8.16a19.26 19.26 0 0 1 6.56-5.9 19.58 19.58 0 0 1 9.61-2.26c11.13 0 16.78 5.9 16.97 17.68v33.98h-8.67v-33.47c0-3.62-.83-6.33-2.49-8.1-1.65-1.82-4.44-2.73-8.34-2.73-3.22 0-5.9.97-8.02 2.9-2.12 1.92-3.36 4.5-3.7 7.74v33.66h-8.72v-33.23c0-7.38-3.6-11.07-10.83-11.07-5.68 0-9.57 2.42-11.67 7.27v37.03h-8.67v-50.72h8.2zm97.08 51.66c-6.87 0-12.47-2.25-16.78-6.75-4.31-4.53-6.47-10.58-6.47-18.14v-1.6c0-5.03.95-9.51 2.86-13.45 1.77-3.78 4.56-7 8.06-9.28a20.28 20.28 0 0 1 11.25-3.38c6.6 0 11.72 2.18 15.38 6.52 3.65 4.34 5.48 10.56 5.48 18.66v3.6h-34.36c.13 5 1.58 9.05 4.36 12.15a13.87 13.87 0 0 0 10.69 4.59c3.06 0 5.66-.63 7.78-1.88a19.57 19.57 0 0 0 5.58-4.96l5.3 4.12c-4.25 6.53-10.63 9.8-19.13 9.8zm-1.08-45.47c-3.5 0-6.44 1.28-8.81 3.84-2.38 2.53-3.84 6.1-4.4 10.69h25.4v-.66c-.25-4.4-1.44-7.8-3.56-10.22-2.13-2.43-5-3.65-8.63-3.65z" fill="#000"/><defs><filter id="filter0_ii" x="0" y="-44" width="600" height="666" filterUnits="userSpaceOnUse" color-interpolation-filters="sRGB"><feFlood flood-opacity="0" result="BackgroundImageFix"/><feBlend in="SourceGraphic" in2="BackgroundImageFix" result="shape"/><feColorMatrix in="SourceAlpha" values="0 0 0 0 0 0 0 0 0 0 0 0 0 0 0 0 0 0 127 0" result="hardAlpha"/><feOffset dy="-44"/><feGaussianBlur stdDeviation="29"/><feComposite in2="hardAlpha" operator="arithmetic" k2="-1" k3="1"/><feColorMatrix values="0 0 0 0 0 0 0 0 0 0 0 0 0 0 0 0 0 0 0.25 0"/><feBlend in2="shape" result="effect1_innerShadow"/><feColorMatrix in="SourceAlpha" values="0 0 0 0 0 0 0 0 0 0 0 0 0 0 0 0 0 0 127 0" result="hardAlpha"/><feOffset dy="22"/><feGaussianBlur stdDeviation="22.5"/><feComposite in2="hardAlpha" operator="arithmetic" k2="-1" k3="1"/><feColorMatrix values="0 0 0 0 1 0 0 0 0 1 0 0 0 0 1 0 0 0 0.56 0"/><feBlend in2="effect1_innerShadow" result="effect2_innerShadow"/></filter></defs></svg>