<svg width="600" height="725" fill="none" xmlns="http://www.w3.org/2000/svg"><path d="M300 600c165.69 0 300-134.31 300-300S465.69 0 300 0 0 134.31 0 300s134.31 300 300 300z" fill="#3DC5FF"/><path d="M416.53 358.1a6.88 6.88 0 0 1-3.99-1.36l-69.78-52.24a5.23 5.23 0 0 1-1.54-1.54 3.96 3.96 0 0 1-.28-3.86c.29-.63.73-1.2 1.3-1.68.6-.5 1.3-.88 2.04-1.12a7.38 7.38 0 0 1 4.84.06c.75.28 1.43.68 1.99 1.17l69.53 52.24c.83.6 1.43 1.47 1.72 2.46.25.94.15 1.91-.29 2.8a5.2 5.2 0 0 1-2.19 2.2c-.99.55-2.15.85-3.35.86v.01zm-232.18 0c-1.17 0-2.32-.3-3.35-.86a5.2 5.2 0 0 1-2.2-2.2 3.94 3.94 0 0 1-.28-2.8 4.7 4.7 0 0 1 1.72-2.47l69.65-52.24a7.1 7.1 0 0 1 4.23-1.06c1.53.08 2.96.63 4 1.52a4.35 4.35 0 0 1 1.63 3.3c0 1.23-.59 2.41-1.64 3.3l-69.65 52.25a6.98 6.98 0 0 1-4.11 1.25v.01z" fill="#fff"/><path d="M457.77 406.66H143.23c-8.02 0-15.7-2.55-21.37-7.09-5.67-4.53-8.86-10.68-8.86-17.1V217.53c0-6.42 3.19-12.57 8.86-17.1 5.66-4.54 13.35-7.09 21.37-7.09h314.54c8.02 0 15.7 2.55 21.38 7.09 5.67 4.53 8.85 10.68 8.85 17.1v164.94c0 6.42-3.19 12.57-8.86 17.1-5.66 4.54-13.35 7.09-21.37 7.09zM143.23 203c-10.03 0-18.14 6.49-18.14 14.52v164.94c0 8.03 8.1 14.51 18.14 14.51h314.54c10.04 0 18.14-6.48 18.14-14.5V217.52c0-8.03-8.1-14.52-18.14-14.52H143.23z" fill="#fff"/><path d="M300.44 324.33c-8.1.06-15.94-2.2-22.13-6.38L123.04 209.59a5.12 5.12 0 0 1-1.47-1.5 3.94 3.94 0 0 1-.33-3.72c.26-.6.66-1.16 1.2-1.65a6.7 6.7 0 0 1 4.1-1.63c1.54-.1 3.07.3 4.36 1.15L286.3 310.6c7.73 5.42 20.8 5.42 28.4 0l155.16-108.15a7.13 7.13 0 0 1 4.31-1.06c1.55.1 3 .69 4.02 1.63a4.29 4.29 0 0 1 1.5 3.4 4.48 4.48 0 0 1-1.85 3.28L322.7 317.95c-6.19 4.17-14.04 6.44-22.13 6.38h-.13z" fill="#fff"/><path d="M227.67 670.45H198.1v24.2h34.36V702H189.1v-68.25H232v7.4h-33.9v21.94h29.58v7.36zm22.78-19.17l.24 5.63c3.72-4.38 8.73-6.57 15.04-6.57 7.1 0 11.93 2.72 14.49 8.16a19.27 19.27 0 0 1 6.56-5.9 19.59 19.59 0 0 1 9.61-2.26c11.13 0 16.78 5.9 16.97 17.68V702h-8.67v-33.47c0-3.62-.83-6.33-2.49-8.1-1.65-1.82-4.43-2.73-8.34-2.73-3.22 0-5.9.97-8.02 2.9-2.12 1.92-3.36 4.5-3.7 7.74V702h-8.72v-33.23c0-7.38-3.6-11.07-10.83-11.07-5.68 0-9.57 2.42-11.67 7.27V702h-8.67v-50.72h8.2zM357.8 702c-.5-1-.9-2.78-1.22-5.34-4.03 4.18-8.85 6.28-14.44 6.28-5 0-9.1-1.4-12.33-4.22a13.83 13.83 0 0 1-4.78-10.78c0-5.28 2-9.38 6-12.28 4.03-2.94 9.69-4.41 16.97-4.41h8.44v-3.98c0-3.04-.9-5.44-2.72-7.22-1.81-1.82-4.49-2.72-8.02-2.72-3.1 0-5.68.78-7.78 2.34-2.1 1.56-3.14 3.46-3.14 5.67h-8.72c0-2.53.9-4.97 2.67-7.3a18.52 18.52 0 0 1 7.32-5.63 24.76 24.76 0 0 1 10.17-2.07c5.84 0 10.42 1.47 13.73 4.41 3.32 2.9 5.03 6.92 5.16 12.05v23.34c0 4.66.6 8.36 1.78 11.11v.75h-9.1zm-14.4-6.6c2.73 0 5.3-.71 7.74-2.12 2.44-1.4 4.2-3.23 5.3-5.48v-10.4h-6.8c-10.62 0-15.94 3.1-15.94 9.32 0 2.72.9 4.84 2.72 6.37 1.81 1.53 4.14 2.3 6.99 2.3zm44.73 6.6h-8.68v-50.72h8.68V702zm-9.38-64.17c0-1.4.42-2.6 1.27-3.56.87-.97 2.15-1.46 3.84-1.46s2.97.49 3.84 1.46a5.12 5.12 0 0 1 1.32 3.56c0 1.4-.44 2.58-1.32 3.51-.87.94-2.15 1.41-3.84 1.41s-2.97-.47-3.84-1.4a5.06 5.06 0 0 1-1.27-3.52zM411.47 702h-8.67v-72h8.67v72z" fill="#3DC5FF"/></svg>