<svg width="600" height="725" fill="none" xmlns="http://www.w3.org/2000/svg"><circle cx="300" cy="300" r="300" fill="#3DC5FF"/><path d="M300.5 223.83c-4.04 0-7.32 2.62-7.32 5.86 0 3.23 3.28 5.86 7.32 5.86 4.04 0 7.32-2.63 7.32-5.86 0-3.24-3.28-5.86-7.32-5.86zM178.92 329.3c4.04 0 7.32-2.63 7.32-5.86 0-3.24-3.28-5.86-7.32-5.86-4.04 0-7.33 2.62-7.33 5.86 0 3.23 3.28 5.86 7.33 5.86z" fill="#fff"/><path d="M359.1 165.23c-65.94 0-120.06 36.37-124.25 82.18-62.8 2.52-121.85 38.75-121.85 87.75 0 20.47 10.13 40.31 28.56 56.03 3.65 12.03-.78 24.78-11.77 33.57-2.09 1.68-2.72 4.2-1.58 6.39 1.13 2.19 3.8 3.62 6.76 3.62 20.9 0 41.02-6.56 55.98-18.1 14.57 3.97 33.58 6.38 50.96 6.38 65.93 0 120.04-36.36 124.24-82.17 15.33-.54 31.28-2.8 43.9-6.25 14.96 11.55 35.09 18.1 55.98 18.1 2.96 0 5.63-1.42 6.76-3.61 1.14-2.2.51-4.71-1.58-6.39-11-8.79-15.42-21.54-11.77-33.57C477.87 293.44 488 273.6 488 253.12c0-50.9-63.6-87.89-128.9-87.89zm-117.2 246.1c-17.28 0-36.98-2.72-50.17-6.92a8.64 8.64 0 0 0-8.12 1.5c-8.84 7.72-20.34 13.12-32.87 15.6 6.9-10.58 8.67-23.06 4.47-34.88a5.72 5.72 0 0 0-1.8-2.48c-16.6-13.69-25.76-31.09-25.76-49 0-41.28 52.32-76.17 114.26-76.17 58.48 0 109.86 32.54 109.86 76.18 0 42-49.28 76.17-109.86 76.17zm205.68-109.2a5.74 5.74 0 0 0-1.79 2.47c-4.2 11.82-2.44 24.3 4.47 34.88-12.53-2.48-24.03-7.88-32.87-15.61a8.65 8.65 0 0 0-8.12-1.49c-11.43 3.64-27.75 6.16-43.15 6.77-2.14-22.16-15.95-42.98-39.57-58.45h95.53c4.05 0 7.33-2.62 7.33-5.86 0-3.23-3.28-5.86-7.33-5.86H304.05c-16.63-6.77-35.3-10.71-54.51-11.54 4.2-39.36 51.73-70.49 109.55-70.49 61.94 0 114.26 34.89 114.26 76.18 0 17.9-9.15 35.3-25.77 49z" fill="#fff"/><path d="M300.5 317.58h-92.28c-4.05 0-7.33 2.62-7.33 5.86 0 3.23 3.28 5.86 7.33 5.86h92.28c4.05 0 7.32-2.63 7.32-5.86 0-3.24-3.27-5.86-7.32-5.86zM300.5 352.73H178.92c-4.05 0-7.33 2.63-7.33 5.86 0 3.24 3.28 5.86 7.33 5.86H300.5c4.05 0 7.32-2.62 7.32-5.86 0-3.23-3.27-5.86-7.32-5.86zM422.08 223.83H329.8c-4.05 0-7.33 2.62-7.33 5.86 0 3.23 3.28 5.86 7.33 5.86h92.28c4.05 0 7.33-2.63 7.33-5.86 0-3.24-3.28-5.86-7.33-5.86z" fill="#fff"/><path d="M124.17 633.75l22.31 55.69 22.32-55.69h11.67V702h-9v-26.58l.84-28.69-22.4 55.27H143l-22.35-55.13.89 28.55V702h-9v-68.25h11.62zm91.88 69.19c-6.88 0-12.47-2.25-16.78-6.75-4.32-4.53-6.47-10.58-6.47-18.14v-1.6c0-5.03.95-9.51 2.86-13.45a22.52 22.52 0 0 1 8.06-9.28 20.28 20.28 0 0 1 11.25-3.38c6.6 0 11.72 2.18 15.37 6.52 3.66 4.34 5.49 10.56 5.49 18.66v3.6h-34.36c.12 5 1.58 9.05 4.36 12.15a13.88 13.88 0 0 0 10.69 4.59c3.06 0 5.65-.63 7.78-1.88a19.56 19.56 0 0 0 5.57-4.96l5.3 4.12c-4.25 6.53-10.62 9.8-19.12 9.8zm-1.08-45.47c-3.5 0-6.44 1.28-8.81 3.84-2.38 2.53-3.85 6.1-4.41 10.69h25.4v-.66c-.24-4.4-1.43-7.8-3.56-10.22-2.12-2.43-5-3.65-8.62-3.65zm60.47 31.08a6.3 6.3 0 0 0-2.67-5.44c-1.75-1.31-4.83-2.44-9.24-3.38-4.37-.93-7.86-2.06-10.45-3.37-2.56-1.31-4.47-2.88-5.72-4.69a11.33 11.33 0 0 1-1.83-6.47c0-4.15 1.75-7.67 5.25-10.54 3.53-2.88 8.03-4.32 13.5-4.32 5.75 0 10.4 1.49 13.97 4.46 3.6 2.97 5.4 6.76 5.4 11.39h-8.73c0-2.38-1.01-4.42-3.05-6.14-2-1.72-4.53-2.58-7.59-2.58-3.15 0-5.62.69-7.4 2.06a6.5 6.5 0 0 0-2.68 5.4c0 2.09.83 3.66 2.49 4.73 1.65 1.06 4.64 2.07 8.95 3.04 4.34.97 7.86 2.13 10.55 3.47 2.69 1.35 4.67 2.97 5.95 4.88a11.72 11.72 0 0 1 1.97 6.89c0 4.53-1.81 8.17-5.44 10.92-3.62 2.72-8.33 4.08-14.1 4.08-4.07 0-7.66-.72-10.79-2.16a17.76 17.76 0 0 1-7.36-6 14.71 14.71 0 0 1-2.62-8.39h8.67a9.07 9.07 0 0 0 3.47 6.94c2.19 1.69 5.06 2.53 8.62 2.53 3.28 0 5.9-.66 7.88-1.97 2-1.34 3-3.12 3-5.34zm49.5 0a6.3 6.3 0 0 0-2.67-5.44c-1.75-1.31-4.83-2.44-9.24-3.38-4.37-.93-7.86-2.06-10.45-3.37-2.56-1.31-4.47-2.88-5.72-4.69a11.33 11.33 0 0 1-1.83-6.47c0-4.15 1.75-7.67 5.25-10.54 3.53-2.88 8.03-4.32 13.5-4.32 5.75 0 10.4 1.49 13.97 4.46 3.6 2.97 5.4 6.76 5.4 11.39h-8.73c0-2.38-1.01-4.42-3.05-6.14-2-1.72-4.53-2.58-7.59-2.58-3.15 0-5.62.69-7.4 2.06a6.5 6.5 0 0 0-2.68 5.4c0 2.09.83 3.66 2.49 4.73 1.65 1.06 4.64 2.07 8.95 3.04 4.34.97 7.86 2.13 10.55 3.47 2.69 1.35 4.67 2.97 5.95 4.88a11.72 11.72 0 0 1 1.97 6.89c0 4.53-1.81 8.17-5.44 10.92-3.62 2.72-8.33 4.08-14.1 4.08-4.07 0-7.66-.72-10.79-2.16a17.76 17.76 0 0 1-7.36-6 14.71 14.71 0 0 1-2.62-8.39h8.67a9.07 9.07 0 0 0 3.47 6.94c2.19 1.69 5.06 2.53 8.62 2.53 3.28 0 5.9-.66 7.88-1.97 2-1.34 3-3.12 3-5.34zM376.22 702c-.5-1-.9-2.78-1.22-5.34-4.03 4.18-8.84 6.28-14.44 6.28-5 0-9.1-1.4-12.33-4.22a13.83 13.83 0 0 1-4.78-10.78c0-5.28 2-9.38 6-12.28 4.03-2.94 9.7-4.41 16.97-4.41h8.44v-3.98c0-3.04-.9-5.44-2.72-7.22-1.81-1.82-4.48-2.72-8.01-2.72-3.1 0-5.7.78-7.79 2.34-2.09 1.56-3.14 3.46-3.14 5.67h-8.72c0-2.53.9-4.97 2.68-7.3a18.52 18.52 0 0 1 7.3-5.63 24.76 24.76 0 0 1 10.18-2.07c5.84 0 10.42 1.47 13.74 4.41 3.3 2.9 5.03 6.92 5.15 12.05v23.34c0 4.66.6 8.36 1.78 11.11v.75h-9.1zm-14.4-6.6c2.73 0 5.3-.71 7.74-2.12 2.44-1.4 4.2-3.23 5.3-5.48v-10.4h-6.8c-10.62 0-15.94 3.1-15.94 9.32 0 2.72.91 4.84 2.72 6.37 1.82 1.53 4.14 2.3 6.99 2.3zm33.24-19.18c0-7.9 1.83-14.19 5.49-18.85 3.65-4.68 8.5-7.03 14.53-7.03 6.19 0 11.01 2.2 14.48 6.57l.42-5.63h7.93v49.5c0 6.56-1.96 11.74-5.86 15.52-3.88 3.78-9.1 5.67-15.66 5.67-3.66 0-7.23-.78-10.73-2.35-3.5-1.56-6.18-3.7-8.02-6.42l4.5-5.2c3.72 4.6 8.27 6.9 13.64 6.9 4.22 0 7.5-1.2 9.85-3.57 2.37-2.38 3.56-5.72 3.56-10.03v-4.36c-3.47 4-8.2 6-14.2 6-5.94 0-10.76-2.4-14.44-7.17-3.66-4.79-5.49-11.3-5.49-19.55zm8.72.98c0 5.72 1.17 10.22 3.52 13.5 2.34 3.25 5.62 4.88 9.84 4.88 5.47 0 9.49-2.49 12.05-7.46v-23.15c-2.66-4.85-6.64-7.27-11.96-7.27-4.21 0-7.51 1.64-9.89 4.92-2.37 3.29-3.56 8.15-3.56 14.58zm68.3 25.74c-6.88 0-12.47-2.25-16.78-6.75-4.32-4.53-6.47-10.58-6.47-18.14v-1.6c0-5.03.95-9.51 2.86-13.45a22.5 22.5 0 0 1 8.06-9.28 20.28 20.28 0 0 1 11.25-3.38c6.6 0 11.72 2.18 15.38 6.52 3.65 4.34 5.48 10.56 5.48 18.66v3.6H457.5c.13 5 1.58 9.05 4.36 12.15a13.88 13.88 0 0 0 10.69 4.59c3.06 0 5.65-.63 7.78-1.88a19.56 19.56 0 0 0 5.58-4.96l5.3 4.12c-4.26 6.53-10.63 9.8-19.13 9.8zM471 657.47c-3.5 0-6.44 1.28-8.81 3.84-2.38 2.53-3.85 6.1-4.4 10.69h25.4v-.66c-.25-4.4-1.44-7.8-3.56-10.22-2.13-2.43-5-3.65-8.63-3.65z" fill="#3DC5FF"/></svg>