<svg width="600" height="729" fill="none" xmlns="http://www.w3.org/2000/svg"><rect width="600" height="600" rx="144" fill="#0A0A0A"/><g clip-path="url(#clip0)"><path d="M464.16 486.49H135.84c-.93 0-1.71-.68-1.85-1.59l-33.97-224.19a1.87 1.87 0 0 1 1.85-2.15h396.26a1.87 1.87 0 0 1 1.85 2.15l-33.97 224.2a1.87 1.87 0 0 1-1.85 1.58z" fill="#F7B563"/><path d="M472.98 258.56V153.35a5.3 5.3 0 0 0-5.3-5.3H254.96c-1.87 0-3.6-.98-4.55-2.58l-17.63-29.39a5.31 5.31 0 0 0-4.54-2.58h-95.3a5.32 5.32 0 0 0-5.31 5.31v139.75h345.35z" fill="#B5885B"/><path d="M452.26 230.93H148.35v27.63h303.9v-27.63z" fill="#fff"/><path d="M445.35 210.2h-290.1v20.73h290.1v-20.72z" fill="#E7ECED"/><path d="M438.44 189.49H162.17v20.72h276.28v-20.72z" fill="#C7CAC7"/></g><path d="M140.95 679.28V706h-9v-68.25h25.18c7.46 0 13.3 1.9 17.53 5.72 4.25 3.81 6.37 8.86 6.37 15.14 0 6.62-2.08 11.73-6.23 15.33-4.13 3.56-10.05 5.34-17.77 5.34h-16.08zm0-7.36h16.18c4.8 0 8.5-1.12 11.06-3.37 2.56-2.28 3.84-5.57 3.84-9.85 0-4.06-1.28-7.3-3.84-9.75-2.56-2.43-6.08-3.7-10.55-3.8h-16.69v26.77zm74.72-8.86a26.07 26.07 0 0 0-4.26-.33c-5.7 0-9.55 2.43-11.58 7.27v36h-8.67v-50.72h8.43l.14 5.86c2.85-4.53 6.88-6.8 12.1-6.8 1.69 0 2.97.22 3.84.66v8.06zm4.78 17.11c0-4.97.97-9.44 2.9-13.4a22.06 22.06 0 0 1 8.17-9.2 22.32 22.32 0 0 1 11.95-3.23c6.9 0 12.48 2.4 16.73 7.18 4.28 4.78 6.43 11.14 6.43 19.07v.61c0 4.94-.96 9.38-2.86 13.32a21.35 21.35 0 0 1-8.11 9.14 22.33 22.33 0 0 1-12.1 3.28c-6.87 0-12.45-2.4-16.73-7.17-4.25-4.79-6.38-11.11-6.38-18.99v-.6zm8.72 1.03c0 5.63 1.3 10.14 3.9 13.55a12.6 12.6 0 0 0 10.5 5.1c4.4 0 7.9-1.7 10.5-5.15 2.59-3.47 3.88-8.3 3.88-14.53 0-5.56-1.32-10.06-3.98-13.5a12.51 12.51 0 0 0-10.5-5.2c-4.28 0-7.74 1.7-10.36 5.1-2.63 3.41-3.94 8.29-3.94 14.63zm57.28-25.92v56.58c0 9.75-4.42 14.62-13.26 14.62-1.9 0-3.67-.28-5.3-.84v-6.94c1 .25 2.31.38 3.94.38 1.94 0 3.4-.53 4.4-1.6 1.04-1.03 1.55-2.84 1.55-5.43v-56.77h8.67zm-9.56-13.45c0-1.38.42-2.55 1.27-3.52.87-1 2.14-1.5 3.8-1.5 1.68 0 2.96.49 3.84 1.46a5.12 5.12 0 0 1 1.3 3.56c0 1.4-.43 2.58-1.3 3.51-.88.94-2.16 1.41-3.85 1.41-1.68 0-2.95-.47-3.8-1.4a5.06 5.06 0 0 1-1.26-3.52zm44.63 65.1c-6.88 0-12.47-2.24-16.79-6.74-4.3-4.53-6.46-10.58-6.46-18.14v-1.6c0-5.03.95-9.51 2.86-13.45a22.5 22.5 0 0 1 8.06-9.28 20.28 20.28 0 0 1 11.25-3.38c6.6 0 11.72 2.18 15.37 6.52 3.66 4.34 5.49 10.56 5.49 18.66v3.6h-34.36c.12 5 1.58 9.05 4.36 12.15a13.88 13.88 0 0 0 10.68 4.59c3.07 0 5.66-.63 7.79-1.88a19.56 19.56 0 0 0 5.57-4.96l5.3 4.12c-4.25 6.53-10.62 9.8-19.12 9.8zm-1.08-45.46c-3.5 0-6.44 1.28-8.81 3.84-2.38 2.53-3.85 6.1-4.41 10.69h25.4v-.66c-.25-4.4-1.43-7.8-3.56-10.22-2.12-2.43-5-3.65-8.62-3.65zm51.28 38.39c3.1 0 5.8-.94 8.1-2.81a9.9 9.9 0 0 0 3.85-7.03h8.2a15.72 15.72 0 0 1-3 8.3 19.72 19.72 0 0 1-7.4 6.27 21.17 21.17 0 0 1-9.75 2.35c-6.9 0-12.4-2.3-16.5-6.9-4.06-4.62-6.1-10.93-6.1-18.93v-1.45c0-4.94.91-9.33 2.72-13.18a20.76 20.76 0 0 1 7.79-8.95c3.4-2.12 7.42-3.19 12.04-3.19 5.69 0 10.4 1.7 14.16 5.11 3.78 3.4 5.8 7.83 6.05 13.27h-8.2a11.82 11.82 0 0 0-3.76-8.06 11.46 11.46 0 0 0-8.25-3.2c-4.4 0-7.83 1.6-10.26 4.79-2.41 3.16-3.61 7.73-3.61 13.73v1.64c0 5.85 1.2 10.35 3.6 13.5 2.41 3.16 5.85 4.74 10.32 4.74zM413.39 643v12.28h9.47v6.7h-9.47v31.46c0 2.03.42 3.56 1.27 4.6.84 1 2.28 1.5 4.3 1.5 1 0 2.38-.2 4.13-.57V706c-2.28.63-4.5.94-6.65.94-3.88 0-6.8-1.17-8.77-3.52-1.97-2.34-2.95-5.67-2.95-9.98v-31.46h-9.24v-6.7h9.24V643h8.67zm49.17 49.55a6.3 6.3 0 0 0-2.67-5.44c-1.75-1.31-4.83-2.44-9.23-3.38-4.38-.93-7.86-2.06-10.46-3.37-2.56-1.31-4.47-2.88-5.72-4.69a11.33 11.33 0 0 1-1.82-6.47c0-4.15 1.75-7.67 5.25-10.54 3.53-2.88 8.03-4.32 13.5-4.32 5.75 0 10.4 1.49 13.96 4.46 3.6 2.97 5.4 6.76 5.4 11.39h-8.72c0-2.38-1.02-4.42-3.05-6.14-2-1.72-4.53-2.58-7.6-2.58-3.15 0-5.62.69-7.4 2.06a6.5 6.5 0 0 0-2.67 5.4c0 2.09.83 3.66 2.48 4.73 1.66 1.06 4.64 2.07 8.96 3.04 4.34.97 7.86 2.13 10.54 3.47 2.69 1.35 4.67 2.97 5.96 4.88a11.72 11.72 0 0 1 1.96 6.89c0 4.53-1.8 8.17-5.43 10.92-3.63 2.72-8.33 4.08-14.11 4.08-4.06 0-7.66-.72-10.78-2.16a17.76 17.76 0 0 1-7.36-6 14.71 14.71 0 0 1-2.63-8.39h8.67a9.08 9.08 0 0 0 3.47 6.94c2.19 1.69 5.06 2.53 8.63 2.53 3.28 0 5.9-.66 7.87-1.97 2-1.34 3-3.12 3-5.34z" fill="#000"/><path d="M140.95 679.28v-1h-1v1h1zm0 26.72v1h1v-1h-1zm-9 0h-1v1h1v-1zm0-68.25v-1h-1v1h1zm42.7 5.72l-.66.74.67-.74zm.15 30.47l.65.75-.65-.75zm-33.85-2.02h-1v1h1v-1zm27.24-3.37l.66.75-.66-.75zm-10.55-23.4l.02-1h-.02v1zm-16.69 0v-1h-1v1h1zm-1 34.13V706h2v-26.72h-2zm1 25.72h-9v2h9v-2zm-8 1v-68.25h-2V706h2zm-1-67.25h25.18v-2h-25.18v2zm25.18 0c7.3 0 12.87 1.86 16.86 5.46l1.34-1.48c-4.46-4.03-10.57-5.98-18.2-5.98v2zm16.86 5.46c4.01 3.6 6.04 8.37 6.04 14.4h2c0-6.53-2.22-11.86-6.7-15.89l-1.34 1.5zm6.04 14.4c0 6.4-2 11.2-5.89 14.57l1.31 1.51c4.42-3.82 6.58-9.23 6.58-16.08h-2zm-5.89 14.57c-3.88 3.35-9.53 5.1-17.1 5.1v2c7.85 0 14.04-1.81 18.41-5.59l-1.3-1.5zm-17.1 5.1h-16.09v2h16.08v-2zm-16.09-5.36h16.18v-2h-16.18v2zm16.18 0c4.95 0 8.91-1.16 11.72-3.62l-1.32-1.5c-2.32 2.03-5.74 3.12-10.4 3.12v2zm11.72-3.63c2.83-2.51 4.18-6.1 4.18-10.59h-2c0 4.07-1.2 7.05-3.5 9.1l1.32 1.5zm4.18-10.59c0-4.29-1.36-7.82-4.15-10.47l-1.38 1.45c2.33 2.22 3.53 5.19 3.53 9.02h2zm-4.15-10.47c-2.79-2.65-6.57-3.98-11.22-4.07l-.04 2c4.29.09 7.54 1.3 9.88 3.52l1.38-1.45zm-11.24-4.07h-16.69v2h16.7v-2zm-17.69 1v26.76h2v-26.76h-2zm75.72 17.9l-.16.99 1.16.2v-1.19h-1zM199.83 670l-.92-.39-.08.19v.2h1zm0 36v1h1v-1h-1zm-8.67 0h-1v1h1v-1zm0-50.72v-1h-1v1h1zm8.43 0l1-.02-.02-.98h-.98v1zm.14 5.86l-1 .02.08 3.33 1.77-2.82-.85-.53zm15.94-6.14h1v-.62l-.55-.27-.45.89zm.17 7.08a26.98 26.98 0 0 0-4.43-.35v2c1.48 0 2.85.11 4.1.32l.33-1.97zm-4.43-.35c-2.99 0-5.57.64-7.7 1.97a12.4 12.4 0 0 0-4.8 5.91l1.84.78a10.4 10.4 0 0 1 4.03-5c1.73-1.08 3.92-1.66 6.63-1.66v-2zM198.83 670v36h2v-36h-2zm1 35h-8.67v2h8.67v-2zm-7.67 1v-50.72h-2V706h2zm-1-49.72h8.43v-2h-8.43v2zm7.43-.98l.15 5.87 2-.05-.15-5.86-2 .04zm2 6.37c2.66-4.25 6.37-6.33 11.24-6.33v-2c-5.58 0-9.92 2.45-12.94 7.27l1.7 1.06zm11.24-6.33c1.63 0 2.72.22 3.4.55l.89-1.78a9.79 9.79 0 0 0-4.3-.77v2zm2.84-.34v8.06h2V655h-2zm8.69 11.77l-.9-.45.9.45zm8.16-9.2l-.53-.84.53.85zm28.68 3.95l-.74.66.74-.66zm3.57 33l-.9-.44.9.44zm-8.11 9.14l-.53-.85.53.85zm-28.83-3.9l-.75.67.75-.66zm6.23-5.01l-.8.6.01.01.8-.61zm21-.05l.8.6-.8-.6zm-.1-28.03l-.79.6v.01l.8-.6zm-32.5 13.5c0-4.83.94-9.15 2.8-12.97l-1.8-.87c-2.01 4.12-3 8.74-3 13.84h2zm2.8-12.96c1.89-3.82 4.49-6.73 7.78-8.78l-1.05-1.7a23.07 23.07 0 0 0-8.53 9.6l1.8.88zm7.78-8.78a21.32 21.32 0 0 1 11.43-3.09v-2c-4.64 0-8.8 1.13-12.48 3.39l1.05 1.7zm11.43-3.09c6.65 0 11.94 2.3 15.99 6.84l1.5-1.33c-4.47-5.01-10.32-7.5-17.5-7.5v2zm15.99 6.84c4.08 4.56 6.17 10.66 6.17 18.41h2c0-8.12-2.2-14.74-6.68-19.74l-1.5 1.33zm6.17 18.41v.61h2v-.6h-2zm0 .61c0 4.8-.93 9.1-2.76 12.88l1.8.87a31.16 31.16 0 0 0 2.95-13.75h-2zm-2.77 12.88a20.36 20.36 0 0 1-7.73 8.73l1.05 1.7c3.7-2.3 6.53-5.5 8.49-9.56l-1.8-.87zm-7.73 8.73a21.34 21.34 0 0 1-11.57 3.13v2c4.73 0 8.95-1.14 12.63-3.44l-1.06-1.7zm-11.57 3.13c-6.61 0-11.91-2.29-15.99-6.84l-1.49 1.33c4.49 5.01 10.35 7.5 17.48 7.5v-2zm-15.98-6.84c-4.06-4.56-6.13-10.63-6.13-18.32h-2c0 8.06 2.18 14.65 6.63 19.65l1.5-1.33zm-6.13-18.32v-.6h-2v.6h2zm6.72.42c0 5.78 1.33 10.53 4.1 14.16l1.59-1.22c-2.43-3.18-3.69-7.46-3.69-12.94h-2zm4.1 14.16a13.59 13.59 0 0 0 11.3 5.5v-2a11.6 11.6 0 0 1-9.72-4.72l-1.58 1.22zm11.3 5.5c4.7 0 8.5-1.86 11.3-5.56l-1.6-1.2a11.47 11.47 0 0 1-9.7 4.76v2zm11.3-5.56c2.76-3.7 4.08-8.78 4.08-15.13h-2c0 6.1-1.27 10.7-3.69 13.93l1.6 1.2zm4.08-15.13c0-5.72-1.36-10.45-4.19-14.11l-1.58 1.22c2.48 3.22 3.77 7.49 3.77 12.9h2zm-4.18-14.1a13.5 13.5 0 0 0-11.3-5.6v2c4.06 0 7.27 1.59 9.7 4.8l1.6-1.2zm-11.3-5.6c-4.6 0-8.34 1.85-11.15 5.5l1.58 1.22a11.46 11.46 0 0 1 9.57-4.72v-2zm-11.15 5.5c-2.81 3.64-4.15 8.77-4.15 15.23h2c0-6.22 1.3-10.85 3.73-14.01l-1.58-1.22zm54.13-10.69h1v-1h-1v1zm-18.56 70.36h-1v.71l.67.24.33-.95zm0-6.94l.24-.97-1.24-.3v1.27h1zm8.34-1.22l-.7-.7h-.01l-.01.02.72.68zm1.55-62.2v-1h-1v1h1zm.38-16.97l-.76-.66.76.66zm7.3 16.97v56.58h2v-56.58h-2zm0 56.58c0 4.74-1.08 8.11-3.06 10.3-1.97 2.16-4.97 3.32-9.21 3.32v2c4.6 0 8.23-1.27 10.69-3.98 2.44-2.7 3.57-6.63 3.57-11.64h-2zm-12.27 13.62c-1.8 0-3.46-.26-4.97-.78l-.66 1.89c1.75.6 3.62.9 5.63.9v-2zm-4.3.16v-6.94h-2v6.94h2zm-1.24-5.97c1.1.28 2.51.4 4.18.4v-2c-1.59 0-2.8-.12-3.7-.34l-.48 1.94zm4.18.4c2.12 0 3.89-.58 5.13-1.9l-1.45-1.37c-.76.8-1.93 1.28-3.68 1.28v2zm5.11-1.88c1.32-1.32 1.84-3.47 1.84-6.14h-2c0 2.52-.51 3.99-1.25 4.73l1.41 1.41zm1.84-6.14v-56.77h-2v56.77h2zm-1-55.77h8.67v-2h-8.67v2zm.11-14.45c0-1.15.35-2.09 1.02-2.86l-1.5-1.31a6.17 6.17 0 0 0-1.52 4.17h2zm1.02-2.86c.64-.73 1.6-1.16 3.04-1.16v-2c-1.87 0-3.44.58-4.55 1.84l1.5 1.32zm3.04-1.16c1.5 0 2.47.42 3.1 1.13l1.49-1.35c-1.12-1.23-2.7-1.78-4.59-1.78v2zm3.1 1.13c.7.77 1.06 1.7 1.06 2.89h2c0-1.63-.52-3.07-1.57-4.24l-1.49 1.35zm1.06 2.89c0 1.18-.36 2.1-1.04 2.83l1.46 1.37a5.95 5.95 0 0 0 1.58-4.2h-2zm-1.04 2.83c-.63.68-1.62 1.09-3.12 1.09v2c1.88 0 3.46-.52 4.58-1.72l-1.46-1.37zm-3.12 1.09c-1.5 0-2.45-.41-3.05-1.08l-1.49 1.34c1.1 1.22 2.67 1.74 4.54 1.74v-2zm-3.05-1.08c-.66-.73-1-1.65-1-2.84h-2c0 1.62.49 3.04 1.51 4.18l1.49-1.34zm25.83 55.52l-.72.69.72-.7zm-3.6-33.19l-.9-.44.9.44zm8.06-9.28l.54.84-.54-.84zm32.1 25.4v1h1v-1h-1zm-34.35 0v-1h-1.03l.03 1.03 1-.02zm4.36 12.15l-.75.66.01.01.74-.67zm24.04-2.25l.62-.8-.8-.61-.6.8.78.6zm5.3 4.12l.84.55.5-.77-.73-.57-.6.8zm-29.01-31.83l.72.69-.73-.69zM307.21 676l-1-.12-.13 1.12h1.13v-1zm25.4 0v1h1v-1h-1zm0-.66h1v-.05l-1 .05zm-3.56-10.22l-.75.66.75-.65zm-7.54 40.82c-6.64 0-11.96-2.16-16.06-6.44l-1.45 1.38c4.52 4.72 10.39 7.06 17.5 7.06v-2zm-16.06-6.44c-4.1-4.31-6.2-10.09-6.2-17.45h-2c0 7.76 2.23 14.07 6.75 18.83l1.45-1.38zm-6.2-17.45v-1.6h-2v1.6h2zm0-1.6c0-4.9.93-9.23 2.76-13.01l-1.8-.88a31.5 31.5 0 0 0-2.95 13.9h2zm2.76-13.01a21.51 21.51 0 0 1 7.71-8.88l-1.09-1.68a23.5 23.5 0 0 0-8.41 9.68l1.8.88zm7.71-8.88a19.28 19.28 0 0 1 10.7-3.22v-2c-4.22 0-8.16 1.19-11.79 3.54l1.1 1.68zm10.7-3.22c6.36 0 11.18 2.08 14.62 6.16l1.53-1.28c-3.88-4.61-9.3-6.88-16.14-6.88v2zm14.62 6.16c3.45 4.1 5.25 10.06 5.25 18.02h2c0-8.24-1.86-14.72-5.72-19.3l-1.53 1.28zm5.25 18.02v3.6h2v-3.6h-2zm1 2.6h-34.36v2h34.36v-2zm-35.36 1.03c.13 5.19 1.64 9.48 4.61 12.78l1.5-1.33c-2.6-2.88-4-6.69-4.11-11.5l-2 .05zm4.62 12.8a14.88 14.88 0 0 0 11.42 4.9v-2c-4.04 0-7.33-1.41-9.95-4.26l-1.47 1.35zm11.42 4.9c3.2 0 5.98-.64 8.3-2l-1.02-1.73c-1.94 1.14-4.35 1.74-7.28 1.74v2zm8.3-2a20.54 20.54 0 0 0 5.86-5.22l-1.59-1.23a18.52 18.52 0 0 1-5.3 4.72l1.02 1.73zm4.45-5.05l5.3 4.13 1.23-1.58-5.3-4.12-1.23 1.57zm5.07 2.8c-4.04 6.21-10.09 9.34-18.28 9.34v2c8.8 0 15.5-3.41 19.96-10.25l-1.68-1.1zm-19.36-36.13c-3.78 0-6.98 1.4-9.55 4.16l1.47 1.36a10.54 10.54 0 0 1 8.08-3.52v-2zm-9.54 4.16c-2.57 2.73-4.1 6.51-4.67 11.25l1.98.24c.55-4.45 1.96-7.8 4.14-10.12l-1.45-1.37zM307.22 677h25.4v-2h-25.4v2zm26.4-1v-.66h-2v.66h2zm0-.71c-.25-4.55-1.49-8.2-3.8-10.83l-1.5 1.33c1.92 2.18 3.06 5.35 3.3 9.61l2-.11zm-3.8-10.82c-2.34-2.69-5.5-4-9.38-4v2c3.37 0 5.96 1.12 7.87 3.31l1.5-1.31zm53.85 25.55v-1h-.91l-.08.9 1 .1zm8.2 0l1 .05.06-1.05h-1.06v1zm-10.4 14.57l-.45-.89.45.9zm-26.25-4.54l-.75.66.75-.66zm4.4-42.52l-.52-.85.52.85zm26.2 1.92l-.66.74.67-.74zm6.06 13.27v1h1.04l-.05-1.05-1 .05zm-8.2 0l-1 .07.06.93h.93v-1zm-3.76-8.06l-.69.72h.01l.68-.72zm-18.51 1.59l-.8-.6.8.6zm10.3 34.6a13.5 13.5 0 0 0 8.75-3.03l-1.26-1.55a11.49 11.49 0 0 1-7.48 2.59v2zm8.75-3.03a10.9 10.9 0 0 0 4.2-7.72l-1.98-.17a8.9 8.9 0 0 1-3.48 6.34l1.26 1.55zm3.21-6.8h8.2v-2h-8.2v2zm7.2-1.06a14.73 14.73 0 0 1-2.81 7.78l1.63 1.15a16.73 16.73 0 0 0 3.18-8.82l-2-.1zm-2.81 7.78a18.72 18.72 0 0 1-7.04 5.96l.9 1.79a20.7 20.7 0 0 0 7.77-6.6l-1.63-1.15zM381 703.7a20.16 20.16 0 0 1-9.3 2.24v2c3.6 0 7.01-.82 10.21-2.46l-.9-1.78zm-9.3 2.24c-6.65 0-11.86-2.2-15.75-6.56l-1.49 1.33c4.31 4.84 10.1 7.23 17.25 7.23v-2zm-15.74-6.55c-3.86-4.4-5.85-10.45-5.85-18.28h-2c0 8.17 2.08 14.74 6.35 19.6l1.5-1.32zm-5.85-18.28v-1.45h-2v1.45h2zm0-1.45c0-4.82.89-9.06 2.63-12.75l-1.81-.85c-1.89 4-2.81 8.54-2.81 13.6h2zm2.63-12.75a19.77 19.77 0 0 1 7.4-8.53l-1.06-1.7a21.76 21.76 0 0 0-8.15 9.38l1.8.85zm7.4-8.53c3.23-2.01 7.06-3.04 11.52-3.04v-2c-4.78 0-8.99 1.1-12.57 3.34l1.05 1.7zm11.52-3.04c5.47 0 9.94 1.63 13.49 4.85l1.34-1.48c-3.96-3.6-8.93-5.37-14.83-5.37v2zm13.49 4.86c3.57 3.21 5.48 7.37 5.72 12.56l2-.09c-.27-5.68-2.39-10.36-6.38-13.96l-1.34 1.49zm6.71 11.52h-8.2v2h8.2v-2zm-7.2.92a12.82 12.82 0 0 0-4.07-8.72l-1.36 1.47a10.83 10.83 0 0 1 3.44 7.4l1.99-.15zm-4.06-8.7a12.46 12.46 0 0 0-8.94-3.47v2c3.04 0 5.54.98 7.56 2.9l1.38-1.44zm-8.94-3.47c-4.68 0-8.41 1.71-11.06 5.17l1.6 1.22c2.22-2.92 5.33-4.4 9.46-4.4v-2zm-11.06 5.17c-2.6 3.4-3.81 8.23-3.81 14.34h2c0-5.88 1.18-10.21 3.4-13.12l-1.59-1.22zm-3.81 14.34v1.64h2v-1.64h-2zm0 1.64c0 5.97 1.22 10.72 3.81 14.11l1.6-1.21c-2.23-2.92-3.41-7.17-3.41-12.9h-2zm3.81 14.11c2.62 3.44 6.37 5.13 11.1 5.13v-2c-4.2 0-7.32-1.47-9.5-4.34l-1.6 1.21zM413.4 643h1v-1h-1v1zm0 12.28h-1v1h1v-1zm9.47 0h1v-1h-1v1zm0 6.7v1h1v-1h-1zm-9.47 0v-1h-1v1h1zm1.27 36.05l-.78.63v.01h.01l.77-.64zm8.43.94h1v-1.24l-1.2.26.2.98zm0 7.03l.27.96.73-.2V706h-1zm-18.37-44.02h1v-1h-1v1zm-9.24 0h-1v1h1v-1zm0-6.7v-1h-1v1h1zm9.24 0v1h1v-1h-1zm0-12.28v-1h-1v1h1zm7.67 0v12.28h2V643h-2zm1 13.28h9.47v-2h-9.47v2zm8.47-1v6.7h2v-6.7h-2zm1 5.7h-9.47v2h9.47v-2zm-10.47 1v31.46h2v-31.46h-2zm0 31.46c0 2.14.44 3.94 1.5 5.22l1.54-1.26c-.64-.78-1.04-2.05-1.04-3.96h-2zm1.5 5.24c1.12 1.32 2.92 1.85 5.08 1.85v-2c-1.9 0-2.98-.47-3.55-1.14l-1.53 1.29zm5.08 1.85c1.1 0 2.56-.2 4.33-.58l-.42-1.96c-1.72.37-3.02.54-3.91.54v2zm3.12-1.56V706h2v-7.03h-2zm.74 6.07c-2.2.6-4.33.9-6.4.9v2c2.26 0 4.57-.33 6.93-.98l-.53-1.92zm-6.4.9c-3.66 0-6.26-1.1-8-3.16l-1.52 1.29c2.2 2.62 5.44 3.87 9.53 3.87v-2zm-8-3.16c-1.76-2.1-2.71-5.17-2.71-9.34h-2c0 4.45 1.01 8.04 3.19 10.63l1.53-1.3zm-2.71-9.34v-31.46h-2v31.46h2zm-1-32.46h-9.24v2h9.24v-2zm-8.24 1v-6.7h-2v6.7h2zm-1-5.7h9.24v-2h-9.24v2zm10.24-1V643h-2v12.28h2zm-1-11.28h8.67v-2h-8.67v2zm55.17 43.1l-.6.8v.01l.02.01.58-.81zm-9.23-3.37l-.21.98.2-.98zm-10.46-3.37l-.45.89.45-.9zm-5.72-4.69l-.83.56.01.01.82-.57zm3.43-17.01l-.64-.78.64.78zm27.46.14l-.63.77.63-.77zm5.4 11.39v1h1v-1h-1zm-8.72 0h-1v1h1v-1zm-3.05-6.14l-.65.75v.01l.65-.76zm-6.23 12.65l-.22.98.22-.98zm16.5 8.35l-.83.56v.01l.83-.57zm-3.47 17.8l.6.8-.6-.8zm-32.25-4.07l-.83.56v.01l.83-.57zm-2.63-8.39v-1h-1v1h1zm8.67 0l1-.05-.05-.95h-.95v1zm3.47 6.94l-.62.78.01.01.61-.8zm16.5.56l.56.83-.56-.83zm4-5.34a7.3 7.3 0 0 0-3.08-6.25l-1.17 1.62a5.3 5.3 0 0 1 2.25 4.63h2zm-3.07-6.24c-1.93-1.45-5.2-2.61-9.63-3.55l-.41 1.95c4.38.93 7.28 2.03 8.84 3.2l1.2-1.6zm-9.62-3.55c-4.33-.93-7.73-2.03-10.22-3.3l-.9 1.8c2.7 1.36 6.28 2.5 10.7 3.45l.42-1.95zm-10.21-3.3c-2.46-1.25-4.22-2.72-5.35-4.36l-1.65 1.14c1.37 1.98 3.42 3.64 6.09 5l.9-1.77zm-5.35-4.35a10.33 10.33 0 0 1-1.65-5.9h-2c0 2.66.65 5.02 2 7.02l1.65-1.12zm-1.65-5.9c0-3.84 1.59-7.08 4.88-9.78l-1.27-1.55c-3.7 3.05-5.61 6.84-5.61 11.32h2zm4.88-9.78c3.32-2.7 7.58-4.09 12.87-4.09v-2c-5.65 0-10.4 1.5-14.14 4.54l1.27 1.55zm12.87-4.09c5.57 0 9.98 1.44 13.32 4.23l1.28-1.54c-3.78-3.15-8.68-4.69-14.6-4.69v2zm13.33 4.23a13.12 13.12 0 0 1 5.03 10.62h2c0-4.93-1.94-9-5.76-12.16l-1.27 1.54zm6.03 9.62h-8.72v2h8.72v-2zm-7.72 1c0-2.7-1.18-5.02-3.4-6.9l-1.3 1.52c1.84 1.56 2.7 3.33 2.7 5.38h2zm-3.4-6.9c-2.2-1.9-4.98-2.82-8.24-2.82v2c2.86 0 5.15.8 6.94 2.33l1.3-1.51zm-8.24-2.82c-3.3 0-6 .71-8.02 2.27l1.22 1.58c1.55-1.2 3.77-1.85 6.8-1.85v-2zm-8.02 2.27a7.49 7.49 0 0 0-3.06 6.18h2c0-1.9.74-3.4 2.28-4.6l-1.22-1.58zm-3.06 6.18c0 2.41.98 4.32 2.94 5.58l1.08-1.68a4.27 4.27 0 0 1-2.02-3.9h-2zm2.94 5.58c1.82 1.16 4.96 2.2 9.28 3.18l.44-1.95c-4.31-.97-7.14-1.96-8.64-2.91l-1.08 1.68zm9.28 3.18c4.3.96 7.73 2.1 10.31 3.39l.9-1.8c-2.79-1.39-6.39-2.56-10.78-3.54l-.43 1.95zm10.31 3.39c2.58 1.29 4.42 2.8 5.58 4.53l1.66-1.11c-1.4-2.09-3.55-3.82-6.34-5.21l-.9 1.79zm5.59 4.55a10.72 10.72 0 0 1 1.78 6.32h2c0-2.89-.7-5.4-2.15-7.47l-1.63 1.15zm1.78 6.32c0 4.21-1.66 7.56-5.04 10.12l1.21 1.6a14.04 14.04 0 0 0 5.83-11.72h-2zm-5.03 10.12c-3.41 2.56-7.89 3.88-13.51 3.88v2c5.94 0 10.87-1.4 14.7-4.28l-1.2-1.6zm-13.51 3.88c-3.95 0-7.4-.7-10.37-2.07l-.83 1.82a26.55 26.55 0 0 0 11.2 2.25v-2zm-10.37-2.07a16.77 16.77 0 0 1-6.95-5.66l-1.64 1.14c1.89 2.73 4.49 4.84 7.76 6.34l.83-1.82zm-6.94-5.65a13.71 13.71 0 0 1-2.46-7.83h-2c0 3.2.94 6.2 2.8 8.95l1.66-1.12zm-3.46-6.83h8.67v-2h-8.67v2zm7.68-.95a10.08 10.08 0 0 0 3.84 7.67l1.25-1.56a8.08 8.08 0 0 1-3.1-6.21l-2 .1zm3.85 7.68c2.4 1.86 5.52 2.74 9.24 2.74v-2c-3.4 0-6.05-.8-8.02-2.32l-1.22 1.58zm9.24 2.74c3.4 0 6.24-.68 8.43-2.14l-1.11-1.66c-1.75 1.17-4.16 1.8-7.32 1.8v2zm8.43-2.14c2.25-1.51 3.44-3.59 3.44-6.17h-2c0 1.85-.8 3.33-2.56 4.51l1.12 1.66z" fill="#000"/><path d="M140.95 679.28v-1h-1v1h1zm0 26.72v1h1v-1h-1zm-9 0h-1v1h1v-1zm0-68.25v-1h-1v1h1zm42.7 5.72l-.66.74.67-.74zm.15 30.47l.65.75-.65-.75zm-33.85-2.02h-1v1h1v-1zm27.24-3.37l.66.75-.66-.75zm-10.55-23.4l.02-1h-.02v1zm-16.69 0v-1h-1v1h1zm-1 34.13V706h2v-26.72h-2zm1 25.72h-9v2h9v-2zm-8 1v-68.25h-2V706h2zm-1-67.25h25.18v-2h-25.18v2zm25.18 0c7.3 0 12.87 1.86 16.86 5.46l1.34-1.48c-4.46-4.03-10.57-5.98-18.2-5.98v2zm16.86 5.46c4.01 3.6 6.04 8.37 6.04 14.4h2c0-6.53-2.22-11.86-6.7-15.89l-1.34 1.5zm6.04 14.4c0 6.4-2 11.2-5.89 14.57l1.31 1.51c4.42-3.82 6.58-9.23 6.58-16.08h-2zm-5.89 14.57c-3.88 3.35-9.53 5.1-17.1 5.1v2c7.85 0 14.04-1.81 18.41-5.59l-1.3-1.5zm-17.1 5.1h-16.09v2h16.08v-2zm-16.09-5.36h16.18v-2h-16.18v2zm16.18 0c4.95 0 8.91-1.16 11.72-3.62l-1.32-1.5c-2.32 2.03-5.74 3.12-10.4 3.12v2zm11.72-3.63c2.83-2.51 4.18-6.1 4.18-10.59h-2c0 4.07-1.2 7.05-3.5 9.1l1.32 1.5zm4.18-10.59c0-4.29-1.36-7.82-4.15-10.47l-1.38 1.45c2.33 2.22 3.53 5.19 3.53 9.02h2zm-4.15-10.47c-2.79-2.65-6.57-3.98-11.22-4.07l-.04 2c4.29.09 7.54 1.3 9.88 3.52l1.38-1.45zm-11.24-4.07h-16.69v2h16.7v-2zm-17.69 1v26.76h2v-26.76h-2zm75.72 17.9l-.16.99 1.16.2v-1.19h-1zM199.83 670l-.92-.39-.08.19v.2h1zm0 36v1h1v-1h-1zm-8.67 0h-1v1h1v-1zm0-50.72v-1h-1v1h1zm8.43 0l1-.02-.02-.98h-.98v1zm.14 5.86l-1 .02.08 3.33 1.77-2.82-.85-.53zm15.94-6.14h1v-.62l-.55-.27-.45.89zm.17 7.08a26.98 26.98 0 0 0-4.43-.35v2c1.48 0 2.85.11 4.1.32l.33-1.97zm-4.43-.35c-2.99 0-5.57.64-7.7 1.97a12.4 12.4 0 0 0-4.8 5.91l1.84.78a10.4 10.4 0 0 1 4.03-5c1.73-1.08 3.92-1.66 6.63-1.66v-2zM198.83 670v36h2v-36h-2zm1 35h-8.67v2h8.67v-2zm-7.67 1v-50.72h-2V706h2zm-1-49.72h8.43v-2h-8.43v2zm7.43-.98l.15 5.87 2-.05-.15-5.86-2 .04zm2 6.37c2.66-4.25 6.37-6.33 11.24-6.33v-2c-5.58 0-9.92 2.45-12.94 7.27l1.7 1.06zm11.24-6.33c1.63 0 2.72.22 3.4.55l.89-1.78a9.79 9.79 0 0 0-4.3-.77v2zm2.84-.34v8.06h2V655h-2zm8.69 11.77l-.9-.45.9.45zm8.16-9.2l-.53-.84.53.85zm28.68 3.95l-.74.66.74-.66zm3.57 33l-.9-.44.9.44zm-8.11 9.14l-.53-.85.53.85zm-28.83-3.9l-.75.67.75-.66zm6.23-5.01l-.8.6.01.01.8-.61zm21-.05l.8.6-.8-.6zm-.1-28.03l-.79.6v.01l.8-.6zm-32.5 13.5c0-4.83.94-9.15 2.8-12.97l-1.8-.87c-2.01 4.12-3 8.74-3 13.84h2zm2.8-12.96c1.89-3.82 4.49-6.73 7.78-8.78l-1.05-1.7a23.07 23.07 0 0 0-8.53 9.6l1.8.88zm7.78-8.78a21.32 21.32 0 0 1 11.43-3.09v-2c-4.64 0-8.8 1.13-12.48 3.39l1.05 1.7zm11.43-3.09c6.65 0 11.94 2.3 15.99 6.84l1.5-1.33c-4.47-5.01-10.32-7.5-17.5-7.5v2zm15.99 6.84c4.08 4.56 6.17 10.66 6.17 18.41h2c0-8.12-2.2-14.74-6.68-19.74l-1.5 1.33zm6.17 18.41v.61h2v-.6h-2zm0 .61c0 4.8-.93 9.1-2.76 12.88l1.8.87a31.16 31.16 0 0 0 2.95-13.75h-2zm-2.77 12.88a20.36 20.36 0 0 1-7.73 8.73l1.05 1.7c3.7-2.3 6.53-5.5 8.49-9.56l-1.8-.87zm-7.73 8.73a21.34 21.34 0 0 1-11.57 3.13v2c4.73 0 8.95-1.14 12.63-3.44l-1.06-1.7zm-11.57 3.13c-6.61 0-11.91-2.29-15.99-6.84l-1.49 1.33c4.49 5.01 10.35 7.5 17.48 7.5v-2zm-15.98-6.84c-4.06-4.56-6.13-10.63-6.13-18.32h-2c0 8.06 2.18 14.65 6.63 19.65l1.5-1.33zm-6.13-18.32v-.6h-2v.6h2zm6.72.42c0 5.78 1.33 10.53 4.1 14.16l1.59-1.22c-2.43-3.18-3.69-7.46-3.69-12.94h-2zm4.1 14.16a13.59 13.59 0 0 0 11.3 5.5v-2a11.6 11.6 0 0 1-9.72-4.72l-1.58 1.22zm11.3 5.5c4.7 0 8.5-1.86 11.3-5.56l-1.6-1.2a11.47 11.47 0 0 1-9.7 4.76v2zm11.3-5.56c2.76-3.7 4.08-8.78 4.08-15.13h-2c0 6.1-1.27 10.7-3.69 13.93l1.6 1.2zm4.08-15.13c0-5.72-1.36-10.45-4.19-14.11l-1.58 1.22c2.48 3.22 3.77 7.49 3.77 12.9h2zm-4.18-14.1a13.5 13.5 0 0 0-11.3-5.6v2c4.06 0 7.27 1.59 9.7 4.8l1.6-1.2zm-11.3-5.6c-4.6 0-8.34 1.85-11.15 5.5l1.58 1.22a11.46 11.46 0 0 1 9.57-4.72v-2zm-11.15 5.5c-2.81 3.64-4.15 8.77-4.15 15.23h2c0-6.22 1.3-10.85 3.73-14.01l-1.58-1.22zm54.13-10.69h1v-1h-1v1zm-18.56 70.36h-1v.71l.67.24.33-.95zm0-6.94l.24-.97-1.24-.3v1.27h1zm8.34-1.22l-.7-.7h-.01l-.01.02.72.68zm1.55-62.2v-1h-1v1h1zm.38-16.97l-.76-.66.76.66zm7.3 16.97v56.58h2v-56.58h-2zm0 56.58c0 4.74-1.08 8.11-3.06 10.3-1.97 2.16-4.97 3.32-9.21 3.32v2c4.6 0 8.23-1.27 10.69-3.98 2.44-2.7 3.57-6.63 3.57-11.64h-2zm-12.27 13.62c-1.8 0-3.46-.26-4.97-.78l-.66 1.89c1.75.6 3.62.9 5.63.9v-2zm-4.3.16v-6.94h-2v6.94h2zm-1.24-5.97c1.1.28 2.51.4 4.18.4v-2c-1.59 0-2.8-.12-3.7-.34l-.48 1.94zm4.18.4c2.12 0 3.89-.58 5.13-1.9l-1.45-1.37c-.76.8-1.93 1.28-3.68 1.28v2zm5.11-1.88c1.32-1.32 1.84-3.47 1.84-6.14h-2c0 2.52-.51 3.99-1.25 4.73l1.41 1.41zm1.84-6.14v-56.77h-2v56.77h2zm-1-55.77h8.67v-2h-8.67v2zm.11-14.45c0-1.15.35-2.09 1.02-2.86l-1.5-1.31a6.17 6.17 0 0 0-1.52 4.17h2zm1.02-2.86c.64-.73 1.6-1.16 3.04-1.16v-2c-1.87 0-3.44.58-4.55 1.84l1.5 1.32zm3.04-1.16c1.5 0 2.47.42 3.1 1.13l1.49-1.35c-1.12-1.23-2.7-1.78-4.59-1.78v2zm3.1 1.13c.7.77 1.06 1.7 1.06 2.89h2c0-1.63-.52-3.07-1.57-4.24l-1.49 1.35zm1.06 2.89c0 1.18-.36 2.1-1.04 2.83l1.46 1.37a5.95 5.95 0 0 0 1.58-4.2h-2zm-1.04 2.83c-.63.68-1.62 1.09-3.12 1.09v2c1.88 0 3.46-.52 4.58-1.72l-1.46-1.37zm-3.12 1.09c-1.5 0-2.45-.41-3.05-1.08l-1.49 1.34c1.1 1.22 2.67 1.74 4.54 1.74v-2zm-3.05-1.08c-.66-.73-1-1.65-1-2.84h-2c0 1.62.49 3.04 1.51 4.18l1.49-1.34zm25.83 55.52l-.72.69.72-.7zm-3.6-33.19l-.9-.44.9.44zm8.06-9.28l.54.84-.54-.84zm32.1 25.4v1h1v-1h-1zm-34.35 0v-1h-1.03l.03 1.03 1-.02zm4.36 12.15l-.75.66.01.01.74-.67zm24.04-2.25l.62-.8-.8-.61-.6.8.78.6zm5.3 4.12l.84.55.5-.77-.73-.57-.6.8zm-29.01-31.83l.72.69-.73-.69zM307.21 676l-1-.12-.13 1.12h1.13v-1zm25.4 0v1h1v-1h-1zm0-.66h1v-.05l-1 .05zm-3.56-10.22l-.75.66.75-.65zm-7.54 40.82c-6.64 0-11.96-2.16-16.06-6.44l-1.45 1.38c4.52 4.72 10.39 7.06 17.5 7.06v-2zm-16.06-6.44c-4.1-4.31-6.2-10.09-6.2-17.45h-2c0 7.76 2.23 14.07 6.75 18.83l1.45-1.38zm-6.2-17.45v-1.6h-2v1.6h2zm0-1.6c0-4.9.93-9.23 2.76-13.01l-1.8-.88a31.5 31.5 0 0 0-2.95 13.9h2zm2.76-13.01a21.51 21.51 0 0 1 7.71-8.88l-1.09-1.68a23.5 23.5 0 0 0-8.41 9.68l1.8.88zm7.71-8.88a19.28 19.28 0 0 1 10.7-3.22v-2c-4.22 0-8.16 1.19-11.79 3.54l1.1 1.68zm10.7-3.22c6.36 0 11.18 2.08 14.62 6.16l1.53-1.28c-3.88-4.61-9.3-6.88-16.14-6.88v2zm14.62 6.16c3.45 4.1 5.25 10.06 5.25 18.02h2c0-8.24-1.86-14.72-5.72-19.3l-1.53 1.28zm5.25 18.02v3.6h2v-3.6h-2zm1 2.6h-34.36v2h34.36v-2zm-35.36 1.03c.13 5.19 1.64 9.48 4.61 12.78l1.5-1.33c-2.6-2.88-4-6.69-4.11-11.5l-2 .05zm4.62 12.8a14.88 14.88 0 0 0 11.42 4.9v-2c-4.04 0-7.33-1.41-9.95-4.26l-1.47 1.35zm11.42 4.9c3.2 0 5.98-.64 8.3-2l-1.02-1.73c-1.94 1.14-4.35 1.74-7.28 1.74v2zm8.3-2a20.54 20.54 0 0 0 5.86-5.22l-1.59-1.23a18.52 18.52 0 0 1-5.3 4.72l1.02 1.73zm4.45-5.05l5.3 4.13 1.23-1.58-5.3-4.12-1.23 1.57zm5.07 2.8c-4.04 6.21-10.09 9.34-18.28 9.34v2c8.8 0 15.5-3.41 19.96-10.25l-1.68-1.1zm-19.36-36.13c-3.78 0-6.98 1.4-9.55 4.16l1.47 1.36a10.54 10.54 0 0 1 8.08-3.52v-2zm-9.54 4.16c-2.57 2.73-4.1 6.51-4.67 11.25l1.98.24c.55-4.45 1.96-7.8 4.14-10.12l-1.45-1.37zM307.22 677h25.4v-2h-25.4v2zm26.4-1v-.66h-2v.66h2zm0-.71c-.25-4.55-1.49-8.2-3.8-10.83l-1.5 1.33c1.92 2.18 3.06 5.35 3.3 9.61l2-.11zm-3.8-10.82c-2.34-2.69-5.5-4-9.38-4v2c3.37 0 5.96 1.12 7.87 3.31l1.5-1.31zm53.85 25.55v-1h-.91l-.08.9 1 .1zm8.2 0l1 .05.06-1.05h-1.06v1zm-10.4 14.57l-.45-.89.45.9zm-26.25-4.54l-.75.66.75-.66zm4.4-42.52l-.52-.85.52.85zm26.2 1.92l-.66.74.67-.74zm6.06 13.27v1h1.04l-.05-1.05-1 .05zm-8.2 0l-1 .07.06.93h.93v-1zm-3.76-8.06l-.69.72h.01l.68-.72zm-18.51 1.59l-.8-.6.8.6zm10.3 34.6a13.5 13.5 0 0 0 8.75-3.03l-1.26-1.55a11.49 11.49 0 0 1-7.48 2.59v2zm8.75-3.03a10.9 10.9 0 0 0 4.2-7.72l-1.98-.17a8.9 8.9 0 0 1-3.48 6.34l1.26 1.55zm3.21-6.8h8.2v-2h-8.2v2zm7.2-1.06a14.73 14.73 0 0 1-2.81 7.78l1.63 1.15a16.73 16.73 0 0 0 3.18-8.82l-2-.1zm-2.81 7.78a18.72 18.72 0 0 1-7.04 5.96l.9 1.79a20.7 20.7 0 0 0 7.77-6.6l-1.63-1.15zM381 703.7a20.16 20.16 0 0 1-9.3 2.24v2c3.6 0 7.01-.82 10.21-2.46l-.9-1.78zm-9.3 2.24c-6.65 0-11.86-2.2-15.75-6.56l-1.49 1.33c4.31 4.84 10.1 7.23 17.25 7.23v-2zm-15.74-6.55c-3.86-4.4-5.85-10.45-5.85-18.28h-2c0 8.17 2.08 14.74 6.35 19.6l1.5-1.32zm-5.85-18.28v-1.45h-2v1.45h2zm0-1.45c0-4.82.89-9.06 2.63-12.75l-1.81-.85c-1.89 4-2.81 8.54-2.81 13.6h2zm2.63-12.75a19.77 19.77 0 0 1 7.4-8.53l-1.06-1.7a21.76 21.76 0 0 0-8.15 9.38l1.8.85zm7.4-8.53c3.23-2.01 7.06-3.04 11.52-3.04v-2c-4.78 0-8.99 1.1-12.57 3.34l1.05 1.7zm11.52-3.04c5.47 0 9.94 1.63 13.49 4.85l1.34-1.48c-3.96-3.6-8.93-5.37-14.83-5.37v2zm13.49 4.86c3.57 3.21 5.48 7.37 5.72 12.56l2-.09c-.27-5.68-2.39-10.36-6.38-13.96l-1.34 1.49zm6.71 11.52h-8.2v2h8.2v-2zm-7.2.92a12.82 12.82 0 0 0-4.07-8.72l-1.36 1.47a10.83 10.83 0 0 1 3.44 7.4l1.99-.15zm-4.06-8.7a12.46 12.46 0 0 0-8.94-3.47v2c3.04 0 5.54.98 7.56 2.9l1.38-1.44zm-8.94-3.47c-4.68 0-8.41 1.71-11.06 5.17l1.6 1.22c2.22-2.92 5.33-4.4 9.46-4.4v-2zm-11.06 5.17c-2.6 3.4-3.81 8.23-3.81 14.34h2c0-5.88 1.18-10.21 3.4-13.12l-1.59-1.22zm-3.81 14.34v1.64h2v-1.64h-2zm0 1.64c0 5.97 1.22 10.72 3.81 14.11l1.6-1.21c-2.23-2.92-3.41-7.17-3.41-12.9h-2zm3.81 14.11c2.62 3.44 6.37 5.13 11.1 5.13v-2c-4.2 0-7.32-1.47-9.5-4.34l-1.6 1.21zM413.4 643h1v-1h-1v1zm0 12.28h-1v1h1v-1zm9.47 0h1v-1h-1v1zm0 6.7v1h1v-1h-1zm-9.47 0v-1h-1v1h1zm1.27 36.05l-.78.63v.01h.01l.77-.64zm8.43.94h1v-1.24l-1.2.26.2.98zm0 7.03l.27.96.73-.2V706h-1zm-18.37-44.02h1v-1h-1v1zm-9.24 0h-1v1h1v-1zm0-6.7v-1h-1v1h1zm9.24 0v1h1v-1h-1zm0-12.28v-1h-1v1h1zm7.67 0v12.28h2V643h-2zm1 13.28h9.47v-2h-9.47v2zm8.47-1v6.7h2v-6.7h-2zm1 5.7h-9.47v2h9.47v-2zm-10.47 1v31.46h2v-31.46h-2zm0 31.46c0 2.14.44 3.94 1.5 5.22l1.54-1.26c-.64-.78-1.04-2.05-1.04-3.96h-2zm1.5 5.24c1.12 1.32 2.92 1.85 5.08 1.85v-2c-1.9 0-2.98-.47-3.55-1.14l-1.53 1.29zm5.08 1.85c1.1 0 2.56-.2 4.33-.58l-.42-1.96c-1.72.37-3.02.54-3.91.54v2zm3.12-1.56V706h2v-7.03h-2zm.74 6.07c-2.2.6-4.33.9-6.4.9v2c2.26 0 4.57-.33 6.93-.98l-.53-1.92zm-6.4.9c-3.66 0-6.26-1.1-8-3.16l-1.52 1.29c2.2 2.62 5.44 3.87 9.53 3.87v-2zm-8-3.16c-1.76-2.1-2.71-5.17-2.71-9.34h-2c0 4.45 1.01 8.04 3.19 10.63l1.53-1.3zm-2.71-9.34v-31.46h-2v31.46h2zm-1-32.46h-9.24v2h9.24v-2zm-8.24 1v-6.7h-2v6.7h2zm-1-5.7h9.24v-2h-9.24v2zm10.24-1V643h-2v12.28h2zm-1-11.28h8.67v-2h-8.67v2zm55.17 43.1l-.6.8v.01l.02.01.58-.81zm-9.23-3.37l-.21.98.2-.98zm-10.46-3.37l-.45.89.45-.9zm-5.72-4.69l-.83.56.01.01.82-.57zm3.43-17.01l-.64-.78.64.78zm27.46.14l-.63.77.63-.77zm5.4 11.39v1h1v-1h-1zm-8.72 0h-1v1h1v-1zm-3.05-6.14l-.65.75v.01l.65-.76zm-6.23 12.65l-.22.98.22-.98zm16.5 8.35l-.83.56v.01l.83-.57zm-3.47 17.8l.6.8-.6-.8zm-32.25-4.07l-.83.56v.01l.83-.57zm-2.63-8.39v-1h-1v1h1zm8.67 0l1-.05-.05-.95h-.95v1zm3.47 6.94l-.62.78.01.01.61-.8zm16.5.56l.56.83-.56-.83zm4-5.34a7.3 7.3 0 0 0-3.08-6.25l-1.17 1.62a5.3 5.3 0 0 1 2.25 4.63h2zm-3.07-6.24c-1.93-1.45-5.2-2.61-9.63-3.55l-.41 1.95c4.38.93 7.28 2.03 8.84 3.2l1.2-1.6zm-9.62-3.55c-4.33-.93-7.73-2.03-10.22-3.3l-.9 1.8c2.7 1.36 6.28 2.5 10.7 3.45l.42-1.95zm-10.21-3.3c-2.46-1.25-4.22-2.72-5.35-4.36l-1.65 1.14c1.37 1.98 3.42 3.64 6.09 5l.9-1.77zm-5.35-4.35a10.33 10.33 0 0 1-1.65-5.9h-2c0 2.66.65 5.02 2 7.02l1.65-1.12zm-1.65-5.9c0-3.84 1.59-7.08 4.88-9.78l-1.27-1.55c-3.7 3.05-5.61 6.84-5.61 11.32h2zm4.88-9.78c3.32-2.7 7.58-4.09 12.87-4.09v-2c-5.65 0-10.4 1.5-14.14 4.54l1.27 1.55zm12.87-4.09c5.57 0 9.98 1.44 13.32 4.23l1.28-1.54c-3.78-3.15-8.68-4.69-14.6-4.69v2zm13.33 4.23a13.12 13.12 0 0 1 5.03 10.62h2c0-4.93-1.94-9-5.76-12.16l-1.27 1.54zm6.03 9.62h-8.72v2h8.72v-2zm-7.72 1c0-2.7-1.18-5.02-3.4-6.9l-1.3 1.52c1.84 1.56 2.7 3.33 2.7 5.38h2zm-3.4-6.9c-2.2-1.9-4.98-2.82-8.24-2.82v2c2.86 0 5.15.8 6.94 2.33l1.3-1.51zm-8.24-2.82c-3.3 0-6 .71-8.02 2.27l1.22 1.58c1.55-1.2 3.77-1.85 6.8-1.85v-2zm-8.02 2.27a7.49 7.49 0 0 0-3.06 6.18h2c0-1.9.74-3.4 2.28-4.6l-1.22-1.58zm-3.06 6.18c0 2.41.98 4.32 2.94 5.58l1.08-1.68a4.27 4.27 0 0 1-2.02-3.9h-2zm2.94 5.58c1.82 1.16 4.96 2.2 9.28 3.18l.44-1.95c-4.31-.97-7.14-1.96-8.64-2.91l-1.08 1.68zm9.28 3.18c4.3.96 7.73 2.1 10.31 3.39l.9-1.8c-2.79-1.39-6.39-2.56-10.78-3.54l-.43 1.95zm10.31 3.39c2.58 1.29 4.42 2.8 5.58 4.53l1.66-1.11c-1.4-2.09-3.55-3.82-6.34-5.21l-.9 1.79zm5.59 4.55a10.72 10.72 0 0 1 1.78 6.32h2c0-2.89-.7-5.4-2.15-7.47l-1.63 1.15zm1.78 6.32c0 4.21-1.66 7.56-5.04 10.12l1.21 1.6a14.04 14.04 0 0 0 5.83-11.72h-2zm-5.03 10.12c-3.41 2.56-7.89 3.88-13.51 3.88v2c5.94 0 10.87-1.4 14.7-4.28l-1.2-1.6zm-13.51 3.88c-3.95 0-7.4-.7-10.37-2.07l-.83 1.82a26.55 26.55 0 0 0 11.2 2.25v-2zm-10.37-2.07a16.77 16.77 0 0 1-6.95-5.66l-1.64 1.14c1.89 2.73 4.49 4.84 7.76 6.34l.83-1.82zm-6.94-5.65a13.71 13.71 0 0 1-2.46-7.83h-2c0 3.2.94 6.2 2.8 8.95l1.66-1.12zm-3.46-6.83h8.67v-2h-8.67v2zm7.68-.95a10.08 10.08 0 0 0 3.84 7.67l1.25-1.56a8.08 8.08 0 0 1-3.1-6.21l-2 .1zm3.85 7.68c2.4 1.86 5.52 2.74 9.24 2.74v-2c-3.4 0-6.05-.8-8.02-2.32l-1.22 1.58zm9.24 2.74c3.4 0 6.24-.68 8.43-2.14l-1.11-1.66c-1.75 1.17-4.16 1.8-7.32 1.8v2zm8.43-2.14c2.25-1.51 3.44-3.59 3.44-6.17h-2c0 1.85-.8 3.33-2.56 4.51l1.12 1.66z" fill="url(#paint0_linear)"/><defs><linearGradient id="paint0_linear" x1="300" y1="600" x2="300" y2="729" gradientUnits="userSpaceOnUse"><stop stop-color="#fff"/><stop offset="1" stop-color="#fff" stop-opacity="0"/></linearGradient><clipPath id="clip0"><path fill="#fff" transform="translate(100 100)" d="M0 0h400v400H0z"/></clipPath></defs></svg>