<svg xmlns="http://www.w3.org/2000/svg" width="511.63" height="511.63"><path d="M63.95 402H9.13a8.9 8.9 0 0 0-6.56 2.56A8.9 8.9 0 0 0 0 411.13v54.82c0 2.66.85 4.85 2.57 6.56a8.88 8.88 0 0 0 6.57 2.57h54.81c2.67 0 4.86-.85 6.57-2.57a8.88 8.88 0 0 0 2.57-6.56v-54.82a8.9 8.9 0 0 0-2.57-6.57 8.9 8.9 0 0 0-6.57-2.57zM283.23 292.36H228.4a8.9 8.9 0 0 0-6.57 2.57 8.9 8.9 0 0 0-2.57 6.56v164.45c0 2.67.86 4.86 2.57 6.57a8.87 8.87 0 0 0 6.57 2.57h54.82c2.66 0 4.85-.86 6.56-2.57a8.89 8.89 0 0 0 2.57-6.57V301.5a8.9 8.9 0 0 0-2.57-6.56 8.88 8.88 0 0 0-6.56-2.57zM173.59 365.45h-54.82a8.9 8.9 0 0 0-6.57 2.57 8.9 8.9 0 0 0-2.56 6.56v91.36c0 2.67.85 4.86 2.56 6.57a8.9 8.9 0 0 0 6.57 2.56h54.82a8.9 8.9 0 0 0 6.57-2.56 8.9 8.9 0 0 0 2.56-6.57v-91.36a8.9 8.9 0 0 0-2.56-6.56 8.9 8.9 0 0 0-6.57-2.57zM392.86 182.72h-54.82a8.9 8.9 0 0 0-6.57 2.57 8.9 8.9 0 0 0-2.57 6.57v274.09a8.9 8.9 0 0 0 2.57 6.56 8.88 8.88 0 0 0 6.57 2.57h54.82c2.66 0 4.85-.85 6.56-2.57a8.86 8.86 0 0 0 2.57-6.56V191.86c0-2.67-.85-4.85-2.57-6.57a8.87 8.87 0 0 0-6.56-2.56zM509.06 39.12a8.9 8.9 0 0 0-6.57-2.57h-54.82a8.9 8.9 0 0 0-6.56 2.57 8.87 8.87 0 0 0-2.57 6.56v420.27c0 2.66.85 4.85 2.57 6.56a8.88 8.88 0 0 0 6.56 2.57h54.82c2.67 0 4.85-.85 6.57-2.57a8.88 8.88 0 0 0 2.57-6.56V45.68c0-2.66-.86-4.85-2.57-6.56z"/></svg>