<svg xmlns="http://www.w3.org/2000/svg" viewBox="0 0 53 53"><path d="M18.61 41.55l-7.9 4.32a7.1 7.1 0 0 0-1.27.9A26.38 26.38 0 0 0 26.5 53a26.4 26.4 0 0 0 16.96-6.14 7.01 7.01 0 0 0-1.39-.94L33.6 41.7a3.23 3.23 0 0 1-1.78-2.89v-3.32a19.48 19.48 0 0 0 3.43-6.33 2.66 2.66 0 0 0 1.89-2.53v-3.55c0-.78-.35-1.48-.89-1.97v-5.12S37.3 8 26.5 8s-9.75 7.98-9.75 7.98v5.12a2.64 2.64 0 0 0-.89 1.97v3.55c0 .93.5 1.75 1.23 2.23.89 3.85 3.2 6.63 3.2 6.63v3.24c0 1.18-.64 2.27-1.68 2.83z" fill="#e7eced"/><path d="M26.95 0a26.5 26.5 0 0 0-17.5 46.76c.38-.34.8-.64 1.26-.9l7.9-4.3a3.23 3.23 0 0 0 1.69-2.84v-3.24s-2.33-2.78-3.21-6.64a2.66 2.66 0 0 1-1.23-2.23v-3.54c0-.78.35-1.48.89-1.97v-5.12S15.7 8 26.5 8s9.75 7.98 9.75 7.98v5.12c.54.5.89 1.19.89 1.97v3.54c0 1.2-.8 2.2-1.9 2.53a19.48 19.48 0 0 1-3.42 6.34v3.32c0 1.22.69 2.34 1.78 2.89l8.47 4.23c.5.25.97.58 1.39.93A26.5 26.5 0 0 0 26.96 0z" fill="#556080"/></svg>