<svg xmlns="http://www.w3.org/2000/svg" width="611.99" height="611.99"><path d="M306 417.77c-30.86 0-55.9 25.04-55.9 55.89s25.05 55.88 55.9 55.88 55.88-25.03 55.88-55.88-25.04-55.9-55.89-55.9zm299.44-195.4C530.7 133.43 421.54 82.45 305.99 82.45S81.31 133.43 6.55 222.37a27.92 27.92 0 0 0 3.43 39.36 27.92 27.92 0 0 0 39.36-3.4c64.08-76.26 157.64-120 256.65-120 99.02 0 192.57 43.74 256.65 119.97a27.92 27.92 0 0 0 39.39 3.41 27.92 27.92 0 0 0 3.4-39.34zm-299.45-28.15c-82.54 0-160.48 36.42-213.87 99.93a27.92 27.92 0 0 0 3.42 39.36 27.83 27.83 0 0 0 17.96 6.56c7.97 0 15.9-3.4 21.4-9.97 42.72-50.84 105.1-80 171.1-80s128.37 29.16 171.1 80a27.85 27.85 0 0 0 21.4 9.97c6.36 0 12.73-2.15 17.96-6.56a27.93 27.93 0 0 0 3.43-39.36c-53.4-63.51-131.35-99.93-213.9-99.93zm0 111.77a167.32 167.32 0 0 0-128.33 59.95 27.92 27.92 0 0 0 3.43 39.37 27.83 27.83 0 0 0 17.96 6.55c7.97 0 15.89-3.39 21.4-9.96 21.37-25.43 52.55-40.02 85.54-40.02s64.18 14.59 85.55 40.02a27.85 27.85 0 0 0 21.4 9.96 27.92 27.92 0 0 0 21.39-45.92A167.32 167.32 0 0 0 305.99 306z"/></svg>